<svg xmlns="http://www.w3.org/2000/svg" width="91" height="36" viewBox="0 0 91 36"><path d="M8.385,56.31h1.763c.314,0,.572-.143.572-.388s-.254-.392-.572-.392H7.42v1.8l.452-.748a.621.621,0,0,1,.512-.272Z" transform="translate(-3.995 -30.052)" fill="#005dac"/><path d="M8.385,60.459h1.74a.52.52,0,1,0,0-1.029H7.42v2.049l.452-.748A.621.621,0,0,1,8.385,60.459Z" transform="translate(-3.995 -32.164)" fill="#005dac"/><path d="M0,0V36H36.2V0ZM11.6,6.682h7.772c2.008,0,5.234.321,5.234,3.4a3.167,3.167,0,0,1-2.437,2.965A3.165,3.165,0,0,1,24.6,16.137c0,3.171-3.065,3.474-5.234,3.483H16.735V17.555a.991.991,0,0,1,.974-1.111h2.377a.82.82,0,0,0,.743-.454l.849-1.652-3.96.018c-.9.083-.978,1.143-.978,1.143V12.782a1.119,1.119,0,0,1,1.02-1.258h2.958a.829.829,0,0,0,.794-.372l.9-1.726h-8.1V19.62H11.589V6.682ZM6.157,29.318H1.842V24.467H6.157c.891,0,2.322.119,2.322,1.271A1.256,1.256,0,0,1,7.4,26.849c.725.216,1.08.615,1.08,1.161,0,1.189-1.357,1.3-2.322,1.308Zm8.285,0-.5-.863h-2.76l.457-.743a.646.646,0,0,1,.512-.271h1.2l-1.043-1.8-2.137,3.685H8.308l2.982-4.856h2.035L16.3,29.322h-1.86Zm5.363,0H17.169a.622.622,0,0,1-.512-.271L16.2,28.3h2.986c.36,0,.651-.174.651-.528V24.462h1.578v3.451c0,1.046-.7,1.4-1.606,1.4Zm7.583,0-.5-.863h-2.76l.452-.743a.633.633,0,0,1,.512-.271h1.2l-1.043-1.8-2.132,3.681H21.249l2.982-4.856h2.035l2.977,4.851Zm6.974-1.4c0,1.046-.692,1.4-1.606,1.4H30.12a.622.622,0,0,1-.512-.271l-.457-.748h2.982c.36,0,.651-.174.651-.528V24.462h1.583v3.451Z" fill="#005dac"/><g transform="translate(39.003 14.487)"><path d="M182.465,38.635l3.909-7.025h-2.668L181,36.941l-2.7-5.331H175.63l3.909,7.025" transform="translate(-134.378 -31.61)" fill="#005dac"/><rect width="2.271" height="7.025" transform="translate(7.602 0)" fill="#005dac"/><path d="M115.115,31.61v3.932l-2.709-3.932h-2.7v7.025h2.271v-3.9l.023.032,2.658,3.863h2.728V31.61Z" transform="translate(-98.882 -31.61)" fill="#005dac"/><path d="M168.675,38.634,167.042,35.9l-.12-.226a2.138,2.138,0,0,0,.826-.7,1.868,1.868,0,0,0,.337-1.122,2.261,2.261,0,0,0-.162-.835,2.134,2.134,0,0,0-1.242-1.223,2.8,2.8,0,0,0-1.034-.18H161.36l.572,1.458h2.862a.74.74,0,0,1,.558.212.688.688,0,0,1,.208.494.775.775,0,0,1-.208.531.842.842,0,0,1-.558.291h-2.326l.517,1.445h1.532l1.482,2.6h2.668Z" transform="translate(-126.694 -31.609)" fill="#005dac"/><path d="M135.354,36.415c0-.457-.166-1.772-2.2-2.128h0a3.871,3.871,0,0,0-.554-.06c-.268-.018-.651-.028-1.131-.014h-.12c-.254,0-.849-.06-.868-.554,0,0-.037-.522.7-.568l3.882-.009V31.61h-4.431c-.775,0-2.437.009-2.64,1.638h0v.078a1.729,1.729,0,0,0-.009.272,1.96,1.96,0,0,0,1.615,1.8,5.372,5.372,0,0,0,1.569.286s.748,0,.863,0c0,0,.545.014.711.369,0,0,.471.831-.614,1.075a2.863,2.863,0,0,1-.406.023h-3.291V38.63h3.683s2.894.06,3.212-1.809a1.556,1.556,0,0,0,.037-.415Z" transform="translate(-108.723 -31.61)" fill="#005dac"/><path d="M86.255,31.61v7.025h2.271V35.81l1.971-.018a.643.643,0,0,0,.6-.309l.688-1.14-3.258.014v-.429a.874.874,0,0,1,.826-.868h2.386c.5.018.642-.254.642-.254l.725-1.191H86.25Z" transform="translate(-86.25 -31.61)" fill="#005dac"/><path d="M147.846,33.96v.4l3.254-.014-.688,1.14a.653.653,0,0,1-.6.309l-1.948.018.018.651a.433.433,0,0,0,.023.129.86.86,0,0,0,.808.572l2.82.014h.6v1.463H145.58V31.62h6.554v1.458l-3.42.014A.867.867,0,0,0,147.846,33.96Z" transform="translate(-118.197 -31.615)" fill="#005dac"/></g></svg>