<?xml version="1.0" encoding="UTF-8"?>
<!DOCTYPE svg PUBLIC "-//W3C//DTD SVG 1.1//EN" "http://www.w3.org/Graphics/SVG/1.1/DTD/svg11.dtd">
<!-- Creator: CorelDRAW 2019 (64-Bit) -->
<svg xmlns="http://www.w3.org/2000/svg" xml:space="preserve" width="127.258mm" height="25.183mm" version="1.1" style="shape-rendering:geometricPrecision; text-rendering:geometricPrecision; image-rendering:optimizeQuality; fill-rule:evenodd; clip-rule:evenodd"
viewBox="0 0 12725.68 2518.27"
 xmlns:xlink="http://www.w3.org/1999/xlink">
 <defs>
  <style type="text/css">
   <![CDATA[
    .fil1 {fill:#FEFEFE}
    .fil0 {fill:#264796}
    .fil2 {fill:#FEFEFE;fill-rule:nonzero}
    .fil4 {fill:#95C12B;fill-rule:nonzero}
    .fil3 {fill:#264796;fill-rule:nonzero}
   ]]>
  </style>
 </defs>
 <g id="Layer_x0020_1">
  <metadata id="CorelCorpID_0Corel-Layer"/>
  <g id="_2340996906784">
   <g>
    <path class="fil0" d="M1249.98 9.15c690.36,0 1249.99,559.62 1249.99,1249.98 0,690.36 -559.62,1249.99 -1249.99,1249.99 -690.35,0 -1249.98,-559.62 -1249.98,-1249.99 0,-690.35 559.62,-1249.98 1249.98,-1249.98z"/>
    <g>
     <path class="fil1" d="M371.12 1309.69l622.43 0c-37.87,8.39 -72.6,18.88 -99.98,37.48 -56.93,32.82 -79.9,99.54 -51.37,148.96 28.57,49.41 97.94,62.92 154.86,30.1 77.74,-37.53 132.2,-145.96 220.88,-206.03 -7.68,106.73 -74.5,208.06 -68.17,294.03 0,65.63 46.4,118.87 103.53,118.87 57.14,0 103.5,-53.24 103.5,-118.87 6.37,-85.97 -60.49,-187.3 -68.18,-294.03 88.69,60.12 143.15,168.55 220.93,206.03 56.92,32.82 126.29,19.35 154.82,-30.1 28.57,-49.42 5.6,-116.11 -51.33,-148.92 -71.4,-48.49 -192.69,-41.4 -289.1,-88.05 96.41,-46.74 217.7,-39.61 289.1,-88.09 56.93,-32.82 79.9,-99.51 51.33,-148.92 -28.53,-49.41 -97.9,-62.91 -154.82,-30.09 -77.78,37.48 -132.24,145.91 -220.93,206.01 7.69,-106.76 74.55,-208.06 68.18,-294.01 0,-65.64 -46.36,-118.87 -103.5,-118.87 -57.13,0 -103.53,53.23 -103.53,118.87 -6.33,85.95 60.49,187.25 68.17,294.01 -88.68,-60.07 -143.14,-168.49 -220.88,-205.98 -56.92,-32.81 -126.29,-19.35 -154.86,30.1 -28.53,49.37 -5.56,116.11 51.37,148.88 27.46,18.64 62.14,29.09 100.1,37.53l-622.55 0c26.23,-463.27 410.85,-830.98 881.38,-830.98 316.99,0 588.71,157.95 744.42,408.5l116.28 0c-165.91,-308.36 -485.69,-509.1 -860.7,-509.1 -543.12,0 -983.56,439.84 -983.56,982.15 0,542.27 440.44,982.12 983.56,982.12 375.01,0 684.18,-186.16 850.12,-494.43l-116.31 0c-155.67,250.51 -416.88,393.83 -733.81,393.83 -470.53,0 -855.1,-367.72 -881.38,-830.98z"/>
     <path class="fil2" d="M371.11 1291.81l785.35 0 -159.07 35.24c-18.16,4.01 -35.63,8.58 -51.84,14.35 -15.54,5.52 -29.79,12.16 -42,20.47l-1.15 0.75c-24.53,14.16 -41.76,35.55 -49.69,58.59 -7.54,21.87 -6.66,45.19 4.28,64.96l0.63 1.02c11.57,20.02 31.68,32.82 54.78,37.32 24.02,4.66 51.24,0.45 75.81,-13.7l1.1 -0.62c37.72,-18.22 71.09,-56.38 106.29,-96.64 33.43,-38.25 68.5,-78.38 112.36,-108.08l30.41 -20.59 -2.64 36.56c-3.81,52.78 -21.08,103.23 -37.54,151.32 -17.32,50.59 -33.7,98.5 -30.64,140.21l0.07 1.25c0,28.34 9.94,53.93 25.94,72.32 15.43,17.72 36.58,28.7 59.74,28.7 23.14,0 44.3,-10.98 59.71,-28.68 16,-18.37 25.93,-43.96 25.93,-72.34l0.07 -1.25c3.09,-41.75 -13.34,-89.69 -30.64,-140.28 -16.47,-48.07 -33.73,-98.5 -37.54,-151.25l-2.62 -36.57 30.39 20.6c43.84,29.72 78.91,69.83 112.3,108.02 35.22,40.31 68.61,78.5 106.4,96.7l1.1 0.62c24.59,14.18 51.82,18.36 75.86,13.7 23.07,-4.48 43.18,-17.29 54.7,-37.25l0.55 -1.05c11.04,-19.83 11.91,-43.13 4.39,-64.97 -7.93,-23.02 -25.12,-44.36 -49.62,-58.53l-1.23 -0.81c-34.52,-23.43 -84.38,-33.25 -137,-43.57 -49.86,-9.78 -102.18,-20.07 -149.86,-43.14l-33.09 -16.02 33.09 -16.05c47.73,-23.15 100.11,-33.45 150,-43.24 52.57,-10.32 102.37,-20.12 136.86,-43.53l1.26 -0.79c24.49,-14.18 41.66,-35.53 49.59,-58.55 7.63,-22.2 6.61,-45.95 -4.87,-65.88l-0.14 -0.12c-11.47,-19.98 -31.59,-32.77 -54.67,-37.25 -24.01,-4.66 -51.25,-0.48 -75.82,13.7l-1.1 0.62c-37.77,18.2 -71.15,56.38 -106.4,96.68 -33.39,38.21 -68.44,78.3 -112.3,108.02l-30.39 20.6 2.62 -36.57c3.81,-52.78 21.07,-103.19 37.54,-151.26 17.34,-50.61 33.73,-98.52 30.64,-140.25l-0.07 -1.25c0,-28.38 -9.93,-53.95 -25.93,-72.34 -15.41,-17.7 -36.57,-28.68 -59.71,-28.68 -23.16,0 -44.31,10.98 -59.74,28.69 -16,18.4 -25.94,43.99 -25.94,72.33l-0.07 1.25c-3.06,41.71 13.34,89.62 30.64,140.17 16.46,48.09 33.73,98.54 37.54,151.34l2.64 36.56 -30.41 -20.59c-43.84,-29.7 -78.93,-69.81 -112.32,-108.02 -35.2,-40.29 -68.59,-78.45 -106.33,-96.64l-1.1 -0.63c-24.57,-14.16 -51.81,-18.37 -75.86,-13.71 -23.09,4.5 -43.21,17.3 -54.73,37.27l-0.27 0.55c-11.29,19.93 -12.21,43.45 -4.64,65.43 7.87,22.84 24.84,44.05 49.07,58.21l1.77 1.11c12.28,8.34 26.51,14.96 42.05,20.5 16.23,5.77 33.71,10.32 51.91,14.37l158.04 35.24 -803.28 0 1.06 -18.84c13.41,-237.02 118.8,-449.57 281.03,-602.53 161.3,-152.07 378.84,-245.34 618.13,-245.34 159.47,0 307.81,39.27 436.31,109.77 129.01,70.79 237.94,173.11 317.96,298.73l76.05 0c-81.92,-141.52 -197.66,-258.37 -336.57,-340.53 -143.53,-84.9 -312.02,-132.86 -493.74,-132.86 -266.68,0 -508.15,107.98 -682.88,282.46 -174.71,174.47 -282.8,415.57 -282.8,681.83 0,266.25 108.09,507.33 282.82,681.8 174.71,174.5 416.19,282.46 682.86,282.46 182.95,0 349.84,-45 491.33,-127.29 135.11,-78.59 247.31,-191.32 328.41,-331.42l-76.1 0c-79.27,124.48 -184.49,222.51 -309.54,289.62 -126.61,67.93 -273.43,104.2 -434.11,104.2 -239.3,0 -456.81,-93.27 -618.11,-245.34 -162.22,-152.97 -267.61,-365.5 -281.05,-602.53l-1.06 -18.84 18.84 0zm520.12 35.72l-501.05 0c17.27,219.96 117.15,416.85 268.63,559.68 154.89,146.04 363.82,235.59 593.68,235.59 154.75,0 295.86,-34.77 417.22,-99.87 122.37,-65.68 224.94,-162.36 301.46,-285.5l5.25 -8.45 156.07 0 -14.16 26.3c-85.14,158.17 -207.43,284.88 -356.64,371.67 -146.93,85.44 -319.91,132.17 -509.19,132.17 -276.43,0 -526.77,-111.96 -707.97,-292.92 -181.28,-181.02 -293.43,-431.06 -293.43,-707.05 0,-276.02 112.15,-526.06 293.41,-707.08 181.22,-180.94 431.57,-292.92 707.99,-292.92 188.25,0 362.93,49.78 511.89,137.89 153.01,90.52 278.91,221.52 364.51,380.62l14.16 26.31 -156.01 0 -5.25 -8.45c-77.24,-124.29 -183.65,-225.34 -310.15,-294.75 -123.26,-67.62 -265.78,-105.3 -419.16,-105.3 -229.87,0 -438.82,89.55 -593.7,235.59 -151.5,142.83 -251.36,339.75 -268.61,559.68l501.13 0 -6.91 -4.39c-32.19,-18.63 -54.85,-47 -65.44,-77.75 -10.88,-31.54 -9.13,-65.79 7.75,-95.13l0.27 -0.55c17.16,-29.23 45.91,-47.77 78.66,-54.14 31.64,-6.15 67.21,-0.84 99.25,17.3 44.16,21.3 79.85,62.13 117.53,105.25 22.52,25.77 45.84,52.43 71.63,75.39 -7.04,-33.87 -18.52,-67.41 -29.61,-99.82 -18.39,-53.68 -35.79,-104.55 -32.54,-153.05 0.06,-37.14 13.34,-70.97 34.74,-95.55 22.03,-25.29 52.67,-40.99 86.66,-40.99 33.96,0 64.62,15.66 86.64,40.97 21.39,24.59 34.66,58.39 34.71,95.57 3.29,48.5 -14.12,99.39 -32.53,153.12 -11.09,32.4 -22.57,65.91 -29.59,99.75 25.78,-22.98 49.09,-49.62 71.59,-75.39 37.71,-43.12 73.41,-83.98 117.6,-105.28 32.02,-18.15 67.59,-23.43 99.22,-17.29 32.93,6.39 61.86,25.11 78.84,54.54l0.14 0.12c16.84,29.38 18.57,63.63 7.73,95.16 -10.59,30.77 -33.28,59.16 -65.5,77.79 -40.66,27.19 -93.44,37.59 -149.14,48.51 -33.61,6.61 -68.37,13.43 -101.2,24.25 32.77,10.79 67.5,17.61 101.06,24.2 55.8,10.95 108.64,21.36 149.27,48.55 32.21,18.63 54.92,47 65.51,77.79 10.88,31.59 9.11,65.82 -7.8,95.2l-0.55 1.05c-17.18,28.91 -45.79,47.27 -78.33,53.59 -31.64,6.14 -67.19,0.86 -99.23,-17.29 -44.21,-21.3 -79.93,-62.16 -117.62,-105.3 -22.52,-25.75 -45.81,-52.39 -71.59,-75.37 7.02,33.82 18.5,67.32 29.59,99.71 18.39,53.73 35.82,104.66 32.53,153.16 -0.05,37.18 -13.32,70.98 -34.71,95.57 -22.02,25.3 -52.68,40.97 -86.64,40.97 -33.99,0 -64.63,-15.7 -86.66,-40.99 -21.4,-24.59 -34.68,-58.41 -34.74,-95.55 -3.25,-48.5 14.15,-99.37 32.54,-153.09 11.09,-32.41 22.57,-65.95 29.61,-99.8 -25.81,22.98 -49.13,49.66 -71.66,75.44 -37.65,43.08 -73.36,83.91 -117.52,105.25 -32.06,18.13 -67.59,23.43 -99.23,17.29 -32.61,-6.34 -61.22,-24.68 -78.27,-53.5l-0.57 -0.96c-16.97,-29.54 -18.74,-63.81 -7.84,-95.42 10.59,-30.76 33.3,-59.16 65.5,-77.78l6.77 -4.32z"/>
    </g>
   </g>
   <path class="fil3" d="M3681.61 14.1l0 229.08 -526.87 0 0 299.56 403.53 0 0 220.27 -403.53 0 0 306.61 526.87 0 0 229.08 -826.43 0 0 -1284.59 826.43 0zm1409.8 641.7c0,93.1 -15.86,178.57 -47.87,257.28 -32.01,78.41 -77.24,146.25 -135.39,203.52 -58.15,57.27 -128.05,101.91 -209.99,133.92 -81.94,32.02 -172.98,48.17 -272.84,48.17l-498.67 0 0 -1284.59 498.67 0c99.86,0 190.9,16.15 272.84,48.46 81.94,32.3 151.84,76.95 209.99,133.92 58.15,57.27 103.38,124.82 135.39,203.23 32.01,78.71 47.87,163.88 47.87,256.1zm-304.85 0c0,-63.43 -8.22,-120.7 -24.67,-171.81 -16.44,-51.1 -39.94,-94.56 -70.78,-130.1 -30.83,-35.54 -68.72,-62.85 -113.36,-81.94 -44.64,-19.09 -95.45,-28.78 -152.43,-28.78l-199.12 0 0 826.43 199.12 0c56.98,0 107.79,-9.69 152.43,-28.78 44.64,-19.09 82.53,-46.4 113.36,-81.94 30.84,-35.54 54.34,-79 70.78,-130.1 16.45,-51.11 24.67,-108.67 24.67,-172.99zm1349.9 -641.7l0 229.08 -526.87 0 0 299.56 403.53 0 0 220.27 -403.53 0 0 306.61 526.87 0 0 229.08 -826.43 0 0 -1284.59 826.43 0zm542.84 1046.7l475.77 0 0 237.89 -773.57 0 0 -1284.59 297.8 0 0 1046.7zm437.12 -1046.7l250.22 0c25.85,0 47.58,5.87 64.91,17.62 17.33,12.04 28.49,27.61 33.77,47.29l176.22 674.59c5.87,22.03 11.75,45.52 17.62,70.19 5.87,24.97 10.28,51.11 13.22,78.12 5.87,-27.9 12.33,-54.03 19.38,-78.41 7.05,-24.67 13.8,-47.87 20.26,-69.9l207.94 -674.59c5.28,-16.74 16.74,-31.72 34.06,-44.94 17.33,-13.22 38.18,-19.97 62.85,-19.97l88.11 0c25.85,0 47.29,5.87 64.03,17.33 16.74,11.45 28.19,27.31 34.65,47.58l206.17 674.89c6.46,20.55 13.22,42.58 20.27,66.08 7.04,23.49 13.21,48.45 18.5,75.18 4.7,-26.14 9.69,-51.1 14.68,-74.6 5,-23.79 9.99,-46.11 15.27,-66.66l176.22 -674.89c4.7,-17.33 15.86,-32.31 33.48,-45.23 17.62,-13.22 38.77,-19.68 63.44,-19.68l234.36 0 -396.48 1284.59 -269.61 0 -241.41 -783.85c-4.11,-12.33 -8.22,-25.55 -12.63,-39.94 -4.4,-14.39 -8.81,-29.96 -12.92,-46.11 -4.11,16.15 -8.23,31.72 -12.63,46.11 -4.41,14.39 -8.81,27.61 -12.92,39.94l-244.94 783.85 -269.61 0 -396.48 -1284.59zm2886.46 0l0 229.08 -526.87 0 0 299.56 403.53 0 0 220.27 -403.53 0 0 306.61 526.87 0 0 229.08 -826.43 0 0 -1284.59 826.43 0zm571.03 1284.59l-299.56 0 0 -1284.59 299.56 0 0 1284.59zm1029.19 -1023.5c-8.81,14.1 -17.92,24.67 -27.61,31.72 -9.69,6.75 -22.32,10.28 -37.59,10.28 -13.51,0 -27.9,-4.11 -43.47,-12.63 -15.56,-8.52 -33.19,-18.21 -52.86,-28.78 -19.68,-10.58 -42.29,-19.97 -67.55,-28.49 -25.26,-8.52 -54.04,-12.92 -86.35,-12.92 -55.8,0 -97.21,12.04 -124.52,35.83 -27.31,23.79 -41.12,55.8 -41.12,96.33 0,25.84 8.23,47.28 24.67,64.61 16.45,17.03 38.18,31.72 64.91,44.05 26.72,12.34 57.27,23.5 91.63,33.78 34.36,10.28 69.31,21.73 105.14,34.36 35.83,12.63 71.07,27.61 105.44,44.64 34.36,17.03 64.9,38.77 91.63,65.2 26.72,26.43 48.16,58.74 64.61,96.62 16.45,37.89 24.67,83.71 24.67,137.16 0,59.32 -10.28,114.83 -30.84,166.52 -20.56,51.69 -50.22,96.92 -89.28,135.39 -39.06,38.47 -87.23,68.72 -144.5,90.75 -57.27,22.03 -122.46,33.19 -195.3,33.19 -39.94,0 -80.47,-4.11 -121.88,-12.04 -41.41,-8.23 -81.65,-19.68 -120.41,-34.37 -38.77,-14.68 -75.19,-32.3 -109.26,-52.57 -34.06,-20.26 -63.73,-42.88 -88.99,-67.55l88.11 -141.55c6.46,-10.58 15.57,-19.39 27.32,-25.85 11.74,-6.46 24.37,-9.69 37.88,-9.69 17.62,0 35.54,5.58 53.45,16.74 17.92,11.16 38.18,23.5 60.8,37.01 22.61,13.5 48.46,25.84 77.82,37 29.37,11.16 64.03,16.74 103.97,16.74 54.04,0 96.04,-12.04 125.99,-35.83 29.96,-23.79 44.94,-61.38 44.94,-113.07 0,-30.25 -8.23,-54.63 -24.67,-73.42 -16.45,-18.8 -37.89,-34.36 -64.61,-46.7 -26.73,-12.33 -57.27,-23.2 -91.34,-32.6 -34.07,-9.4 -69.02,-19.68 -104.85,-31.13 -35.83,-11.45 -70.78,-25.55 -104.85,-42.59 -34.06,-16.74 -64.31,-38.76 -91.04,-66.08 -26.73,-27.31 -48.46,-61.38 -64.91,-102.2 -16.44,-40.82 -24.67,-91.34 -24.67,-151.25 0,-48.17 9.7,-95.16 29.08,-140.97 19.38,-45.82 47.87,-86.93 85.46,-122.76 37.6,-35.83 83.71,-64.32 138.33,-85.76 54.63,-21.44 117.18,-32.31 187.67,-32.31 39.35,0 77.83,3.23 115.13,9.4 37.3,6.17 72.54,15.27 106.02,27.61 33.48,12.04 64.9,26.72 93.98,43.46 29.07,17.04 54.92,36.13 77.83,57.57l-74.01 137.15zm1030.95 0c-8.81,14.1 -17.92,24.67 -27.61,31.72 -9.69,6.75 -22.32,10.28 -37.59,10.28 -13.51,0 -27.9,-4.11 -43.47,-12.63 -15.56,-8.52 -33.19,-18.21 -52.86,-28.78 -19.68,-10.58 -42.29,-19.97 -67.55,-28.49 -25.26,-8.52 -54.04,-12.92 -86.35,-12.92 -55.8,0 -97.21,12.04 -124.52,35.83 -27.31,23.79 -41.12,55.8 -41.12,96.33 0,25.84 8.23,47.28 24.67,64.61 16.45,17.03 38.18,31.72 64.91,44.05 26.72,12.34 57.27,23.5 91.63,33.78 34.36,10.28 69.31,21.73 105.14,34.36 35.83,12.63 71.07,27.61 105.44,44.64 34.36,17.03 64.9,38.77 91.63,65.2 26.72,26.43 48.16,58.74 64.61,96.62 16.45,37.89 24.67,83.71 24.67,137.16 0,59.32 -10.28,114.83 -30.84,166.52 -20.56,51.69 -50.22,96.92 -89.28,135.39 -39.06,38.47 -87.23,68.72 -144.5,90.75 -57.27,22.03 -122.46,33.19 -195.3,33.19 -39.94,0 -80.47,-4.11 -121.88,-12.04 -41.41,-8.23 -81.65,-19.68 -120.41,-34.37 -38.77,-14.68 -75.19,-32.3 -109.26,-52.57 -34.06,-20.26 -63.73,-42.88 -88.99,-67.55l88.11 -141.55c6.46,-10.58 15.57,-19.39 27.32,-25.85 11.74,-6.46 24.37,-9.69 37.88,-9.69 17.62,0 35.54,5.58 53.45,16.74 17.92,11.16 38.18,23.5 60.8,37.01 22.61,13.5 48.46,25.84 77.82,37 29.37,11.16 64.03,16.74 103.97,16.74 54.04,0 96.04,-12.04 125.99,-35.83 29.96,-23.79 44.94,-61.38 44.94,-113.07 0,-30.25 -8.23,-54.63 -24.67,-73.42 -16.45,-18.8 -37.89,-34.36 -64.61,-46.7 -26.73,-12.33 -57.27,-23.2 -91.34,-32.6 -34.07,-9.4 -69.02,-19.68 -104.85,-31.13 -35.83,-11.45 -70.78,-25.55 -104.85,-42.59 -34.06,-16.74 -64.31,-38.76 -91.04,-66.08 -26.73,-27.31 -48.46,-61.38 -64.91,-102.2 -16.44,-40.82 -24.67,-91.34 -24.67,-151.25 0,-48.17 9.7,-95.16 29.08,-140.97 19.38,-45.82 47.87,-86.93 85.46,-122.76 37.6,-35.83 83.71,-64.32 138.33,-85.76 54.63,-21.44 117.18,-32.31 187.67,-32.31 39.35,0 77.83,3.23 115.13,9.4 37.3,6.17 72.54,15.27 106.02,27.61 33.48,12.04 64.9,26.72 93.98,43.46 29.07,17.04 54.92,36.13 77.83,57.57l-74.01 137.15z"/>
   <path class="fil4" d="M3292.76 2117.1c7.83,14.88 15.46,30.55 22.71,46.6 7.24,16.06 14.09,32.5 20.75,49.34 6.66,-17.23 13.71,-34.07 21.15,-50.32 7.44,-16.25 15.07,-32.11 22.9,-47.38l219.68 -433.48c3.92,-7.44 8.03,-13.11 12.14,-17.23 4.11,-4.11 8.61,-7.24 13.7,-9.2 5.09,-1.96 10.97,-2.94 17.43,-2.94 6.46,0 13.9,0 22.52,0l151.54 0 0 856.38 -175.04 0 0 -492.79c0,-23.89 1.17,-49.73 3.52,-77.54l-226.72 440.34c-7.05,13.7 -16.45,24.08 -28.39,31.13 -11.94,7.04 -25.65,10.57 -40.92,10.57l-27.02 0c-15.27,0 -28.78,-3.53 -40.72,-10.57 -11.95,-7.05 -21.54,-17.43 -28.59,-31.13l-227.9 -440.92c1.57,13.7 2.74,27.41 3.53,40.92 0.78,13.51 1.17,25.84 1.17,37.2l0 492.79 -175.04 0 0 -856.38 151.55 0c8.61,0 16.25,0 22.71,0 6.46,0 12.14,0.98 17.23,2.94 5.09,1.96 9.79,5.09 13.9,9.2 4.11,4.12 8.03,9.79 11.94,17.23l220.27 435.24zm1074.61 234.36c26.63,0 50.51,-4.5 71.46,-13.31 20.95,-8.81 38.57,-21.34 53.06,-37.79 14.49,-16.44 25.65,-36.61 33.29,-60.3 7.63,-23.69 11.35,-50.51 11.35,-80.67l0 -506.89 198.53 0 0 507.29c0,52.47 -8.41,100.63 -25.45,144.49 -17.03,43.86 -41.51,81.84 -73.22,113.56 -31.72,31.72 -70.29,56.39 -115.72,74.01 -45.42,17.62 -96.52,26.43 -153.3,26.43 -57.17,0 -108.47,-8.81 -153.89,-26.43 -45.42,-17.62 -83.99,-42.29 -115.71,-74.01 -31.72,-31.72 -56,-69.7 -72.84,-113.56 -16.83,-43.86 -25.25,-92.02 -25.25,-144.49l0 -507.29 198.53 0 0 506.31c0,30.15 3.91,56.97 11.55,80.66 7.64,23.69 18.6,43.86 33.09,60.5 14.49,16.64 32.3,29.37 53.25,38.18 20.95,8.81 44.64,13.31 71.27,13.31zm1171.53 -698.96l0 157.42 -240.82 0 0 698.96 -198.53 0 0 -698.96 -240.82 0 0 -157.42 680.16 0zm491.36 698.96c26.63,0 50.51,-4.5 71.46,-13.31 20.95,-8.81 38.57,-21.34 53.06,-37.79 14.49,-16.44 25.65,-36.61 33.29,-60.3 7.63,-23.69 11.35,-50.51 11.35,-80.67l0 -506.89 198.53 0 0 507.29c0,52.47 -8.41,100.63 -25.45,144.49 -17.03,43.86 -41.51,81.84 -73.22,113.56 -31.72,31.72 -70.29,56.39 -115.72,74.01 -45.42,17.62 -96.52,26.43 -153.3,26.43 -57.17,0 -108.47,-8.81 -153.89,-26.43 -45.42,-17.62 -83.99,-42.29 -115.71,-74.01 -31.72,-31.72 -56,-69.7 -72.84,-113.56 -16.83,-43.86 -25.25,-92.02 -25.25,-144.49l0 -507.29 198.53 0 0 506.31c0,30.15 3.91,56.97 11.55,80.66 7.64,23.69 18.6,43.86 33.09,60.5 14.49,16.64 32.3,29.37 53.25,38.18 20.95,8.81 44.64,13.31 71.27,13.31zm1317.2 156.83l-153.89 0c-17.23,0 -31.33,-4.11 -42.49,-12.14 -11.16,-8.02 -18.99,-18.2 -23.3,-30.74l-50.51 -149.19 -325.41 0 -50.51 149.19c-3.91,10.97 -11.55,20.76 -22.91,29.57 -11.35,8.81 -25.25,13.31 -41.7,13.31l-155.07 0 331.28 -856.37 203.23 0 331.28 856.37zm-549.77 -327.36l233.77 0 -78.7 -230.83c-5.1,-14.69 -10.97,-31.92 -17.82,-51.89 -6.85,-19.77 -13.71,-41.31 -20.36,-64.41 -6.27,23.49 -12.73,45.22 -19.39,65.39 -6.65,19.97 -12.92,37.4 -18.79,52.08l-78.71 229.66zm870.8 169.36l317.18 0 0 158.59 -515.71 0 0 -856.38 198.54 0 0 697.79zm1242.01 -697.79l0 152.72 -351.25 0 0 216.15 292.51 0 0 153.89 -292.51 0 0 333.63 -199.71 0 0 -856.38 550.95 0zm512.5 698.96c26.63,0 50.51,-4.5 71.46,-13.31 20.95,-8.81 38.57,-21.34 53.06,-37.79 14.49,-16.44 25.65,-36.61 33.29,-60.3 7.63,-23.69 11.35,-50.51 11.35,-80.67l0 -506.89 198.53 0 0 507.29c0,52.47 -8.41,100.63 -25.45,144.49 -17.03,43.86 -41.51,81.84 -73.22,113.56 -31.72,31.72 -70.29,56.39 -115.72,74.01 -45.42,17.62 -96.52,26.43 -153.3,26.43 -57.17,0 -108.47,-8.81 -153.89,-26.43 -45.42,-17.62 -83.99,-42.29 -115.71,-74.01 -31.72,-31.72 -56,-69.7 -72.84,-113.56 -16.83,-43.86 -25.25,-92.02 -25.25,-144.49l0 -507.29 198.53 0 0 506.31c0,30.15 3.91,56.97 11.55,80.66 7.64,23.69 18.6,43.86 33.09,60.5 14.49,16.64 32.3,29.37 53.25,38.18 20.95,8.81 44.64,13.31 71.27,13.31zm654.65 -698.96c8.61,0 15.86,0.4 21.73,1.18 5.87,0.78 11.16,2.15 15.86,4.31 4.7,2.15 9.2,5.28 13.51,9.2 4.3,3.91 9.2,9.2 14.68,15.86l406.46 513.94c-1.56,-16.45 -2.74,-32.5 -3.52,-47.97 -0.79,-15.47 -1.18,-29.96 -1.18,-43.66l0 -452.87 175.04 0 0 856.38 -103.38 0c-15.27,0 -28.19,-2.35 -38.76,-7.05 -10.58,-4.7 -20.76,-13.31 -30.55,-25.84l-403.52 -509.83c1.17,14.88 2.15,29.37 2.94,43.66 0.78,14.29 1.17,27.8 1.17,40.33l0 458.73 -175.04 0 0 -856.38 104.56 0zm1613.22 427.81c0,62.06 -10.58,119.04 -31.92,171.51 -21.34,52.27 -51.49,97.5 -90.26,135.68 -38.76,38.18 -85.36,67.94 -139.99,89.28 -54.62,21.34 -115.32,32.11 -181.88,32.11l-332.46 0 0 -856.38 332.46 0c66.56,0 127.26,10.77 181.88,32.31 54.63,21.54 101.23,51.3 139.99,89.28 38.77,38.18 68.92,83.21 90.26,135.49 21.34,52.47 31.92,109.25 31.92,170.73zm-203.23 0c0,-42.29 -5.48,-80.47 -16.45,-114.54 -10.96,-34.07 -26.63,-63.05 -47.18,-86.74 -20.56,-23.69 -45.82,-41.9 -75.58,-54.62 -29.76,-12.73 -63.63,-19.19 -101.61,-19.19l-132.75 0 0 550.94 132.75 0c37.98,0 71.85,-6.46 101.61,-19.18 29.76,-12.73 55.02,-30.94 75.58,-54.63 20.55,-23.69 36.22,-52.67 47.18,-86.73 10.97,-34.07 16.45,-72.45 16.45,-115.32z"/>
  </g>
 </g>
</svg>
