<?xml version="1.0" encoding="utf-8"?>
<!-- Generator: Adobe Illustrator 24.0.1, SVG Export Plug-In . SVG Version: 6.00 Build 0)  -->
<svg version="1.1" xmlns="http://www.w3.org/2000/svg" xmlns:xlink="http://www.w3.org/1999/xlink" x="0px" y="0px"
	 viewBox="0 0 579.2 170.3" style="enable-background:new 0 0 579.2 170.3;" xml:space="preserve">
<style type="text/css">
	.st0{display:none;}
	.st1{display:inline;fill:#FFFFFF;}
	.st2{display:inline;fill:#DB0011;}
	.st3{display:inline;}
	.st4{fill:#FFFFFF;}
	.st5{fill:#DB0011;}
</style>
<g id="HSBC_MASTERBRAND_LOGO_WW_RGB" class="st0">
	<rect x="42.6" y="42.7" class="st1" width="85" height="85"/>
	<title>HSBC_MASTERBRAND_LOGO_WW_RGB</title>
	<polygon class="st2" points="170.1,85.3 127.6,42.7 127.6,127.8 	"/>
	<polygon class="st2" points="85.1,85.3 127.6,42.7 42.6,42.7 	"/>
	<polygon class="st2" points="0,85.3 42.6,127.8 42.6,42.7 	"/>
	<polygon class="st2" points="85.1,85.3 42.6,127.8 127.6,127.8 	"/>
	<path class="st3" d="M207.4,87.8H192V103h-7.7V67.4h7.7V82h15.4V67.4h7.7V103h-7.7V87.8z"/>
	<path class="st3" d="M233.7,103.7c-7.7,0-14-3.1-14.1-11.6h7.7c0.1,3.8,2.3,6.1,6.5,6.1c3.1,0,6.7-1.6,6.7-5.1
		c0-2.8-2.4-3.6-6.4-4.8l-2.6-0.7c-5.6-1.6-11.2-3.8-11.2-10.2c0-7.9,7.4-10.6,14.1-10.6c6.9,0,12.9,2.4,13,10.3h-7.7
		c-0.3-3.2-2.2-5.1-5.8-5.1c-2.9,0-5.7,1.5-5.7,4.7c0,2.6,2.4,3.4,7.4,5l3,0.9c6.1,1.9,10,4,10,10
		C248.5,100.6,240.7,103.7,233.7,103.7z"/>
	<path class="st3" d="M252.9,67.5h12.4c2.3-0.1,4.7,0,7,0.4c4.3,1,7.6,3.8,7.6,8.6c0,4.6-2.9,6.9-7.1,8c4.8,0.9,8.4,3.3,8.4,8.6
		c0,8.1-8,9.9-14.2,9.9h-14L252.9,67.5z M265.3,82.3c3.4,0,6.9-0.7,6.9-4.8c0-3.7-3.2-4.7-6.4-4.7h-5.4v9.5H265.3z M266,97.7
		c3.6,0,7.1-0.8,7.1-5.2s-3-5.2-6.7-5.2h-6.1v10.4C260.3,97.7,266,97.7,266,97.7z"/>
	<path class="st3" d="M301.2,103.7c-11.5,0-16.6-7.3-16.6-18.2s5.7-18.8,17-18.8c7.1,0,14,3.2,14.2,11.2h-8
		c-0.4-3.6-2.8-5.4-6.2-5.4c-7,0-9.1,7.5-9.1,13.2s2.1,12.3,8.8,12.3c3.5,0,6.1-1.9,6.6-5.5h8C315.1,100.7,308.6,103.7,301.2,103.7z
		"/>
</g>
<g id="Layer_2">
	<g>
		<g>
			<path d="M365.4,69.4L352,102.6h-3.1l-13.6-33.2v33.2h-2.9V66.7h5.2l12.9,31.9l12.7-31.9h5.2v35.7h-3.1L365.4,69.4L365.4,69.4z"/>
			<path d="M392.1,98.6c-2.1,2.9-4.4,4.2-8.1,4.2c-6.7,0-9-3.8-9-10V77.5h2.9v14.2c0,4.6,1,8.6,6.5,8.6c5.6,0,7.5-4.8,7.5-9.6V77.5
				h2.9v17.5c0,2.5,0,5,0.2,7.5h-2.9L392.1,98.6z"/>
			<path d="M407.7,102.8c-3.5,0-5.2-1.7-5.2-5.4V79.8h-5v-2.3h5v-5.2l2.9-1.3v6.5h5.6v2.3h-5.6v16.3c0,2.9,0.4,4.2,3.5,4.2
				c0.6,0,1.5-0.2,2.3-0.2v2.5C410,102.6,408.8,102.8,407.7,102.8z"/>
			<path d="M430.9,98.6c-2.1,2.9-4.4,4.2-8.1,4.2c-6.7,0-9-3.8-9-10V77.5h2.9v14.2c0,4.6,1,8.6,6.5,8.6c5.6,0,7.5-4.8,7.5-9.6V77.5
				h2.9v17.5c0,2.5,0,5,0.2,7.5h-2.9L430.9,98.6z"/>
			<path d="M454.9,99c-2.1,3.1-4.6,4.2-8.4,4.2c-4.6,0-8.8-2.3-8.8-7.3c0-7.9,9.4-8.1,15.5-8.1h1.3c0-0.6,0-1,0-1.7
				c0-4.2-1.7-6.5-6.1-6.5c-3.1,0-5.4,1-5.8,4.6h-2.9c0-5,4.4-6.9,8.8-6.9c6.3,0,9,2.5,9,8.8v7.5c0,3.1,0.2,6.1,0.4,9.2h-2.5
				C455.1,101.3,455.1,100.1,454.9,99z M452.2,89.6c-4.2,0-11.3,0.2-11.3,6.1c0,3.5,2.9,5.2,6.3,5.2c7.1,0,7.5-5.6,7.5-11.1
				C453.9,89.6,453,89.6,452.2,89.6z"/>
			<path d="M463.5,66.7h2.9v35.7h-2.9V66.7z"/>
			<path d="M487.3,82.5h16.5v2.7h-16.5v17.3h-3.1V66.7h20.3v2.7h-17.1V82.5z"/>
			<path d="M524.7,98.6c-2.1,2.9-4.4,4.2-8.1,4.2c-6.7,0-9-3.8-9-10V77.5h2.9v14.2c0,4.6,1,8.6,6.5,8.6c5.6,0,7.5-4.8,7.5-9.6V77.5
				h2.9v17.5c0,2.5,0,5,0.2,7.5h-2.9V98.6z"/>
			<path d="M550.3,88.4c0-4.6-0.6-8.6-6.3-8.6c-5.6,0-7.5,4.4-7.5,9.4v13.4h-2.9v-18c0-2.3-0.2-4.8-0.2-7.1h2.9l0.2,4.2
				c2.1-2.9,4.6-4.4,8.1-4.4c6.7,0,8.8,3.8,8.8,10v15.2h-2.9V88.4H550.3z"/>
			<path d="M576.2,98.4c-2.1,3.1-4.4,4.6-8.1,4.6c-7.5,0-10.9-6.5-10.9-13.2c0-6.5,3.3-12.7,10.6-12.7c4,0,6.5,1.5,8.4,4.8V66.7h2.9
				v28.4c0,2.5,0,5,0.2,7.5h-2.9L576.2,98.4z M567.9,79.4c-5.8,0-7.5,5.6-7.5,10.4c0,5.2,2.1,10.4,8.1,10.4c5.8,0,7.5-5.4,7.5-10.4
				C576.2,85,573.9,79.4,567.9,79.4z"/>
		</g>
		<rect x="43" y="41.8" class="st4" width="85.4" height="85.4"/>
		<polygon class="st5" points="171,84.6 128.4,41.8 128.4,127.2 		"/>
		<polygon class="st5" points="85.6,84.6 128.4,41.8 43,41.8 		"/>
		<polygon class="st5" points="0.2,84.6 43,127.2 43,41.8 		"/>
		<polygon class="st5" points="85.6,84.6 43,127.2 128.4,127.2 		"/>
		<path d="M208.6,87.1h-15.5v15.2h-7.7V66.7h7.7v14.6h15.5V66.7h7.7v35.7h-7.7V87.1z"/>
		<path d="M234.9,103c-7.7,0-14-3.1-14.2-11.7h7.7c0,3.8,2.3,6.1,6.5,6.1c3.1,0,6.7-1.7,6.7-5.2c0-2.7-2.5-3.5-6.5-4.8l-2.5-0.6
			c-5.6-1.7-11.3-3.8-11.3-10.2c0-7.9,7.5-10.6,14.2-10.6c6.9,0,12.9,2.5,13.2,10.4h-7.7c-0.2-3.1-2.3-5.2-5.8-5.2
			c-2.9,0-5.6,1.5-5.6,4.8c0,2.5,2.5,3.3,7.5,5l2.9,0.8c6.1,1.9,10,4,10,10C249.9,100.1,242,103,234.9,103z"/>
		<g>
			<path d="M274.3,83.8c4.2-1,7.1-3.3,7.1-8.1s-3.3-7.7-7.7-8.6c-2.3-0.4-4.6-0.4-7.1-0.4h-12.5v35.7h14.2c6.3,0,14.2-1.9,14.2-10
				C282.7,87.1,279.1,84.6,274.3,83.8z M261.8,72.1h5.4c3.1,0,6.5,1,6.5,4.8c0,4.2-3.5,4.8-6.9,4.8h-5
				C261.8,81.7,261.8,72.1,261.8,72.1z M267.4,97.1h-5.6V86.7h6.1c3.8,0,6.7,0.8,6.7,5.2C274.5,96.3,271,97.1,267.4,97.1z"/>
		</g>
		<path d="M302.7,103c-11.5,0-16.7-7.3-16.7-18.2s5.6-19,17.1-19c7.1,0,14,3.1,14.2,11.3h-7.9c-0.4-3.5-2.7-5.4-6.3-5.4
			c-7.1,0-9.2,7.5-9.2,13.4c0,5.8,2.1,12.3,8.8,12.3c3.5,0,6.1-1.9,6.7-5.4h7.9C316.7,100.1,310.2,103,302.7,103z"/>
	</g>
</g>
</svg>
