<svg width="350" height="44" viewBox="0 0 350 44" fill="none" xmlns="http://www.w3.org/2000/svg">
<path d="M47.0417 41.9995H32.4063L23.5239 26.423H38.1534L47.0417 41.9995Z" fill="white"/>
<path d="M23.4733 1.00003L30.8062 13.6857L14.6013 42H0L23.4733 1.00003Z" fill="white"/>
<path d="M91.1205 15.3585C90.8109 14.8572 90.4406 14.4885 90.0095 14.2516C89.5784 14.014 89.0399 13.8956 88.3933 13.8956C87.6659 13.8956 87.1104 14.0609 86.726 14.3931C86.3423 14.7253 86.1505 15.1417 86.1505 15.6423C86.1505 16.4825 86.763 17.0784 87.9889 17.4307L89.7065 17.9387C91.0939 18.3454 92.1138 18.9107 92.7678 19.6347C93.4204 20.3602 93.747 21.2235 93.747 22.2253C93.747 22.8629 93.6226 23.4551 93.373 24.0033C93.1241 24.5523 92.7678 25.026 92.3027 25.4252C91.8382 25.8252 91.2753 26.1403 90.6154 26.3705C89.9554 26.6006 89.2214 26.7153 88.4133 26.7153C86.7838 26.7153 85.4972 26.3504 84.5543 25.6182C83.6114 24.8874 83.0462 23.8305 82.8573 22.4488L85.3631 21.9818C85.5105 22.8897 85.8446 23.5638 86.363 24.0033C86.8815 24.4435 87.5652 24.6632 88.4133 24.6632C89.2888 24.6632 89.9621 24.4502 90.4339 24.0234C90.9057 23.5974 91.1413 23.0454 91.1413 22.3676C91.1413 22.0019 91.0805 21.6913 90.959 21.4328C90.8383 21.1758 90.6665 20.9486 90.4443 20.752C90.2213 20.5561 89.9591 20.3907 89.6562 20.2544C89.3532 20.1196 89.0258 19.9975 88.6762 19.8887L87.0193 19.4016C85.8342 19.0492 84.9587 18.5584 84.3928 17.9282C83.8269 17.2988 83.544 16.5368 83.544 15.6423C83.544 15.0873 83.6588 14.5764 83.8876 14.1093C84.1173 13.6416 84.4439 13.2423 84.8676 12.9101C85.292 12.5787 85.7972 12.3172 86.383 12.128C86.9689 11.9381 87.6259 11.8435 88.3525 11.8435C89.5925 11.8435 90.602 12.0707 91.3835 12.5243C92.1642 12.9786 92.75 13.5909 93.1411 14.3626L91.1205 15.3585ZM77.9073 12.0871H80.473V26.4517H77.9073V12.0871ZM67.4828 18.9338L62.6742 12.0871H65.6244L68.9775 17.0448L72.3513 12.0871H75.2608L70.3922 18.9547L75.6652 26.4517H72.7158L68.9167 20.9255L65.0785 26.4517H62.1083L67.4828 18.9338ZM51.0571 21.1892H56.2087L53.6836 16.2724L51.0571 21.1892ZM57.2397 23.2212H49.9868L48.2284 26.4517H45.4812L53.7036 11.5589L61.7653 26.4517H58.9774L57.2397 23.2212Z" fill="white"/>
<path d="M108.637 20.7629C108.368 20.2892 108.102 19.7707 107.84 19.2084C107.577 18.6468 107.331 18.0807 107.102 17.5116C107.034 18.2706 106.94 19.0363 106.819 19.808C106.697 20.5797 106.563 21.3119 106.414 22.0016L105.486 26.4514H102.879L106.152 11.6198L111.971 21.9204L117.789 11.6198L121.062 26.4514H118.456L117.527 22.0016C117.378 21.3119 117.24 20.5797 117.112 19.808C116.984 19.0363 116.886 18.2706 116.82 17.5116C116.59 18.0807 116.345 18.6468 116.082 19.2084C115.82 19.7707 115.56 20.2892 115.304 20.7629L111.971 26.797L108.637 20.7629Z" fill="white"/>
<path d="M126.578 23.5663C127.224 24.23 128.113 24.5622 129.244 24.5622C130.376 24.5622 131.265 24.23 131.911 23.5663C132.558 22.9026 132.881 21.9686 132.881 20.7627V12.0873H135.447V20.8438C135.447 21.7377 135.309 22.5473 135.033 23.2721C134.757 23.9968 134.356 24.6166 133.83 25.1305C133.305 25.6459 132.656 26.0452 131.881 26.329C131.106 26.6143 130.228 26.7565 129.244 26.7565C128.248 26.7565 127.366 26.6143 126.598 26.329C125.83 26.0452 125.184 25.6459 124.658 25.1305C124.133 24.6166 123.732 23.9968 123.456 23.2721C123.18 22.5473 123.042 21.7377 123.042 20.8438V12.0873H125.608V20.7627C125.608 21.9686 125.931 22.9026 126.578 23.5663Z" fill="white"/>
<path d="M137.548 12.0872H149.206V14.2413H144.66V26.4518H142.094V14.2413H137.548V12.0872Z" fill="white"/>
<path d="M154.923 23.5663C155.57 24.23 156.458 24.5622 157.589 24.5622C158.721 24.5622 159.61 24.23 160.257 23.5663C160.903 22.9026 161.226 21.9686 161.226 20.7627V12.0873H163.792V20.8438C163.792 21.7377 163.653 22.5473 163.378 23.2721C163.102 23.9968 162.701 24.6166 162.176 25.1305C161.651 25.6459 161 26.0452 160.226 26.329C159.452 26.6143 158.572 26.7565 157.589 26.7565C156.593 26.7565 155.711 26.6143 154.943 26.329C154.175 26.0452 153.529 25.6459 153.003 25.1305C152.478 24.6166 152.077 23.9968 151.802 23.2721C151.525 22.5473 151.387 21.7377 151.387 20.8438V12.0873H153.953V20.7627C153.953 21.9686 154.276 22.9026 154.923 23.5663Z" fill="white"/>
<path d="M170.136 21.1894H175.287L172.762 16.2726L170.136 21.1894ZM176.318 23.2214H169.065L167.307 26.4518H164.56L172.782 11.5591L180.844 26.4518H178.056L176.318 23.2214Z" fill="white"/>
<path d="M182.601 12.0872H185.167V24.2984H191.369V26.4518H182.601V12.0872Z" fill="white"/>
<path d="M201.168 12.0872H210.28V14.2413H203.734V18.0401H209.694V20.1935H203.734V26.4518H201.168V12.0872Z" fill="white"/>
<path d="M216.502 23.5663C217.149 24.23 218.038 24.5622 219.169 24.5622C220.301 24.5622 221.189 24.23 221.836 23.5663C222.483 22.9026 222.806 21.9686 222.806 20.7627V12.0873H225.372V20.8438C225.372 21.7377 225.234 22.5473 224.957 23.2721C224.682 23.9968 224.281 24.6166 223.755 25.1305C223.23 25.6459 222.58 26.0452 221.806 26.329C221.032 26.6143 220.152 26.7565 219.169 26.7565C218.173 26.7565 217.29 26.6143 216.522 26.329C215.755 26.0452 215.108 25.6459 214.583 25.1305C214.058 24.6166 213.657 23.9968 213.381 23.2721C213.105 22.5473 212.967 21.7377 212.967 20.8438V12.0873H215.533V20.7627C215.533 21.9686 215.856 22.9026 216.502 23.5663Z" fill="white"/>
<path d="M231.089 16.9432V26.4514H228.524V11.6808L240.766 21.6768V12.0875H243.333V26.9392L231.089 16.9432Z" fill="white"/>
<path d="M251.656 24.2982C252.478 24.2982 253.212 24.179 253.858 23.9422C254.505 23.7053 255.05 23.3671 255.494 22.9262C255.939 22.4867 256.28 21.9512 256.515 21.3218C256.75 20.6916 256.868 19.9907 256.868 19.219C256.868 18.46 256.75 17.7732 256.515 17.1565C256.28 16.5405 255.939 16.0154 255.494 15.5819C255.05 15.1484 254.505 14.8169 253.858 14.586C253.212 14.3558 252.478 14.2411 251.656 14.2411H249.13V24.2982H251.656ZM246.565 12.087H251.716C252.888 12.087 253.956 12.2635 254.919 12.6158C255.881 12.9682 256.7 13.459 257.374 14.0884C258.047 14.7186 258.569 15.4701 258.939 16.3439C259.309 17.2168 259.495 18.1762 259.495 19.219C259.495 20.2752 259.309 21.2473 258.939 22.1344C258.569 23.0215 258.047 23.7865 257.374 24.4301C256.7 25.0736 255.886 25.5712 254.929 25.9235C253.972 26.2758 252.901 26.4516 251.716 26.4516H246.565V12.087Z" fill="white"/>
<line x1="267.5" y1="6" x2="267.5" y2="38" stroke="white"/>
<path d="M302.934 40.5811C303.154 40.5811 303.354 40.5504 303.526 40.49C303.696 40.4296 303.843 40.3446 303.961 40.2381C304.08 40.1322 304.171 40.0065 304.233 39.8636C304.296 39.7201 304.328 39.5606 304.328 39.3888C304.328 39.0069 304.216 38.7218 303.984 38.5179C303.753 38.3147 303.4 38.2112 302.934 38.2112H302.041V40.5811H302.934ZM301.594 43.1346C301.554 43.1346 301.521 43.102 301.521 43.0607V37.8392C301.521 37.7979 301.554 37.7659 301.594 37.7659H302.934C303.558 37.7659 304.037 37.9069 304.359 38.1853C304.684 38.4674 304.849 38.8727 304.849 39.3888C304.849 39.6265 304.804 39.8488 304.716 40.0496C304.628 40.2504 304.498 40.4259 304.331 40.5713C304.166 40.7173 303.963 40.8306 303.727 40.9106C303.494 40.9901 303.227 41.0301 302.934 41.0301H302.041V43.0607C302.041 43.102 302.009 43.1346 301.968 43.1346H301.594ZM307.507 41.0905L306.488 38.553C306.476 38.5247 306.464 38.4939 306.453 38.4606C306.441 38.4939 306.43 38.5259 306.418 38.5555L305.398 41.0905H307.507ZM308.475 43.1346C308.424 43.1346 308.38 43.1199 308.344 43.0903C308.312 43.0626 308.287 43.0293 308.271 42.9887L307.676 41.5179H305.224L304.634 42.9887C304.62 43.0269 304.595 43.0607 304.561 43.0885C304.522 43.1192 304.478 43.1346 304.427 43.1346H304.141C304.116 43.1346 304.094 43.1223 304.08 43.102C304.067 43.0817 304.064 43.0558 304.073 43.033L306.198 37.8115C306.21 37.7838 306.236 37.7659 306.265 37.7659H306.64C306.67 37.7659 306.696 37.7838 306.707 37.8115L308.832 43.033C308.841 43.0558 308.839 43.0817 308.825 43.102C308.812 43.1223 308.789 43.1346 308.765 43.1346H308.475ZM310.423 40.3453C310.645 40.3453 310.846 40.3182 311.02 40.2652C311.192 40.2128 311.34 40.1371 311.458 40.0404C311.574 39.9443 311.665 39.8273 311.725 39.6943C311.787 39.56 311.818 39.4054 311.818 39.2336C311.818 38.8844 311.708 38.6337 311.483 38.4662C311.256 38.2974 310.915 38.2112 310.471 38.2112H309.593V40.3453H310.423ZM312.401 43.1346C312.351 43.1346 312.306 43.1242 312.266 43.1045C312.229 43.0835 312.193 43.0527 312.16 43.0102L310.498 40.8928C310.463 40.8478 310.426 40.8158 310.39 40.7992C310.365 40.7869 310.311 40.7727 310.199 40.7727H309.593V43.0607C309.593 43.102 309.56 43.1346 309.52 43.1346H309.146C309.105 43.1346 309.073 43.102 309.073 43.0607V37.8392C309.073 37.7979 309.105 37.7659 309.146 37.7659H310.471C311.084 37.7659 311.551 37.8885 311.858 38.1305C312.172 38.3762 312.33 38.7402 312.33 39.212C312.33 39.4202 312.294 39.6136 312.223 39.7866C312.15 39.9603 312.045 40.1143 311.91 40.2449C311.776 40.3748 311.613 40.4826 311.425 40.5657C311.282 40.6286 311.125 40.6748 310.954 40.7049C310.97 40.7216 312.785 43.0152 312.785 43.0152C312.802 43.0373 312.805 43.0675 312.794 43.0928C312.781 43.118 312.756 43.1346 312.727 43.1346H312.401ZM314.144 43.1346C314.103 43.1346 314.071 43.102 314.071 43.0607V38.2334H312.309C312.269 38.2334 312.236 38.2013 312.236 38.1601V37.8392C312.236 37.7979 312.269 37.7659 312.309 37.7659H316.342C316.382 37.7659 316.415 37.7979 316.415 37.8392V38.1601C316.415 38.2013 316.382 38.2334 316.342 38.2334H314.591V43.0607C314.591 43.102 314.559 43.1346 314.518 43.1346H314.144ZM320.518 43.1346C320.438 43.1346 320.37 43.0983 320.322 43.0293L317.09 38.691V43.0607C317.09 43.102 317.058 43.1346 317.017 43.1346H316.691C316.65 43.1346 316.618 43.102 316.618 43.0607V37.8392C316.618 37.7979 316.65 37.7659 316.691 37.7659H316.874C316.917 37.7659 316.954 37.7714 316.983 37.785C317.015 37.7985 317.045 37.8244 317.076 37.8651L320.295 42.1979V37.8392C320.295 37.7979 320.327 37.7659 320.368 37.7659H320.698C320.738 37.7659 320.771 37.7979 320.771 37.8392V43.0607C320.771 43.102 320.738 43.1346 320.698 43.1346H320.518ZM321.688 43.1346C321.648 43.1346 321.615 43.102 321.615 43.0607V37.8392C321.615 37.7979 321.648 37.7659 321.688 37.7659H324.8C324.84 37.7659 324.873 37.7979 324.873 37.8392V38.1533C324.873 38.1939 324.84 38.2266 324.8 38.2266H322.139V40.1901H324.341C324.382 40.1901 324.414 40.2233 324.414 40.2633V40.5694C324.414 40.6107 324.382 40.6434 324.341 40.6434H322.139V42.6733H324.8C324.84 42.6733 324.873 42.706 324.873 42.7472V43.0607C324.873 43.102 324.84 43.1346 324.8 43.1346H321.688ZM326.862 40.3453C327.084 40.3453 327.285 40.3182 327.46 40.2652C327.631 40.2128 327.778 40.1371 327.897 40.0404C328.014 39.9443 328.104 39.8273 328.164 39.6943C328.226 39.56 328.257 39.4054 328.257 39.2336C328.257 38.8837 328.148 38.6331 327.923 38.4662C327.696 38.2974 327.355 38.2112 326.91 38.2112H326.033V40.3453H326.862ZM328.84 43.1346C328.79 43.1346 328.745 43.1242 328.706 43.1045C328.668 43.0835 328.632 43.0527 328.599 43.0102L326.937 40.8928C326.902 40.8472 326.866 40.8158 326.83 40.7992C326.805 40.7869 326.75 40.7727 326.639 40.7727H326.033V43.0607C326.033 43.102 326 43.1346 325.96 43.1346H325.585C325.545 43.1346 325.512 43.102 325.512 43.0607V37.8392C325.512 37.7979 325.545 37.7659 325.585 37.7659H326.91C327.523 37.7659 327.99 37.8885 328.298 38.1305C328.611 38.3769 328.77 38.7409 328.77 39.212C328.77 39.419 328.734 39.613 328.662 39.7866C328.59 39.9603 328.484 40.1143 328.35 40.2449C328.215 40.3748 328.052 40.4826 327.864 40.5657C327.721 40.6286 327.563 40.6748 327.393 40.7049C327.409 40.7216 329.224 43.0152 329.224 43.0152C329.241 43.0373 329.245 43.0675 329.232 43.0928C329.221 43.118 329.195 43.1346 329.167 43.1346H328.84Z" fill="white"/>
<path d="M302.114 38.2851H302.933C303.382 38.2851 303.719 38.3824 303.936 38.5733C304.151 38.7624 304.255 39.0291 304.255 39.3888C304.255 39.5495 304.225 39.6992 304.166 39.8334C304.108 39.9677 304.023 40.0853 303.913 40.1833C303.802 40.2837 303.663 40.3631 303.502 40.4204C303.337 40.4783 303.146 40.5078 302.933 40.5078H302.114V38.2851ZM302.933 37.692H301.594C301.513 37.692 301.448 37.7579 301.448 37.8392V43.0607C301.448 43.142 301.513 43.2079 301.594 43.2079H301.968C302.049 43.2079 302.114 43.142 302.114 43.0607V41.1046H302.933C303.234 41.1046 303.509 41.0628 303.751 40.9802C303.995 40.8971 304.207 40.7782 304.38 40.6273C304.554 40.4746 304.69 40.2904 304.783 40.0798C304.875 39.8698 304.922 39.6376 304.922 39.3888C304.922 38.8498 304.748 38.4261 304.407 38.1299C304.071 37.8392 303.576 37.692 302.933 37.692ZM305.506 41.0172L306.453 38.6638L307.399 41.0172H305.506ZM306.64 37.692H306.265C306.206 37.692 306.152 37.7283 306.13 37.7837L304.005 43.0053C303.987 43.0502 303.992 43.102 304.019 43.1426C304.047 43.1833 304.092 43.2079 304.14 43.2079H304.427C304.494 43.2079 304.556 43.1864 304.606 43.1457C304.652 43.1094 304.685 43.0644 304.704 43.0114L305.274 41.5918H307.627L308.203 43.0164C308.225 43.0693 308.256 43.1125 308.296 43.1463C308.344 43.1864 308.406 43.2079 308.474 43.2079H308.764C308.813 43.2079 308.859 43.1833 308.886 43.1426C308.913 43.102 308.918 43.0502 308.9 43.0053L306.775 37.7837C306.752 37.7283 306.699 37.692 306.64 37.692ZM309.666 38.2851H310.471C310.899 38.2851 311.225 38.3664 311.441 38.5259C311.645 38.6774 311.745 38.909 311.745 39.2342C311.745 39.3943 311.716 39.5384 311.659 39.6641C311.602 39.7879 311.519 39.895 311.411 39.9837C311.3 40.0742 311.162 40.1451 310.999 40.195C310.831 40.2455 310.637 40.2713 310.423 40.2713H309.666V38.2851ZM310.471 37.692H309.146C309.065 37.692 309 37.7579 309 37.8392V43.0607C309 43.142 309.065 43.2079 309.146 43.2079H309.52C309.601 43.2079 309.666 43.142 309.666 43.0607V40.846H310.199C310.309 40.846 310.349 40.8607 310.359 40.8657C310.385 40.878 310.412 40.9014 310.439 40.9371L312.102 43.0558C312.142 43.1069 312.186 43.1451 312.233 43.1691C312.281 43.195 312.338 43.2079 312.4 43.2079H312.727C312.783 43.2079 312.835 43.1753 312.859 43.1248C312.883 43.0737 312.876 43.0133 312.841 42.9689L311.088 40.753C311.218 40.7228 311.34 40.6828 311.454 40.6329C311.65 40.546 311.82 40.4333 311.961 40.2978C312.103 40.1599 312.214 39.9979 312.29 39.815C312.366 39.6327 312.404 39.43 312.404 39.212C312.404 38.7162 312.235 38.3331 311.904 38.072C311.583 37.8201 311.1 37.692 310.471 37.692ZM316.342 37.692H312.309C312.228 37.692 312.163 37.7579 312.163 37.8392V38.16C312.163 38.2413 312.228 38.3072 312.309 38.3072H313.998V43.0607C313.998 43.142 314.063 43.2079 314.143 43.2079H314.518C314.599 43.2079 314.664 43.142 314.664 43.0607V38.3072H316.342C316.422 38.3072 316.488 38.2413 316.488 38.16V37.8392C316.488 37.7579 316.422 37.692 316.342 37.692ZM320.697 37.692H320.367C320.286 37.692 320.221 37.7579 320.221 37.8392V41.9761L317.134 37.8213C317.096 37.7708 317.057 37.7369 317.013 37.7178C316.974 37.7006 316.928 37.692 316.874 37.692H316.69C316.609 37.692 316.544 37.7579 316.544 37.8392V43.0607C316.544 43.142 316.609 43.2079 316.69 43.2079H317.017C317.097 43.2079 317.163 43.142 317.163 43.0607V38.9114L320.265 43.0749C320.323 43.1593 320.414 43.2079 320.517 43.2079H320.697C320.778 43.2079 320.844 43.142 320.844 43.0607V37.8392C320.844 37.7579 320.778 37.692 320.697 37.692ZM324.8 37.692H321.688C321.607 37.692 321.542 37.7579 321.542 37.8392V43.0607C321.542 43.142 321.607 43.2079 321.688 43.2079H324.8C324.881 43.2079 324.946 43.142 324.946 43.0607V42.7472C324.946 42.6659 324.881 42.6 324.8 42.6H322.213V40.7166H324.341C324.422 40.7166 324.487 40.6513 324.487 40.57V40.2639C324.487 40.1826 324.422 40.1167 324.341 40.1167H322.213V38.2999H324.8C324.881 38.2999 324.946 38.234 324.946 38.1527V37.8392C324.946 37.7579 324.881 37.692 324.8 37.692ZM326.105 38.2851H326.91C327.338 38.2851 327.665 38.3664 327.88 38.5259C328.084 38.6774 328.184 38.909 328.184 39.2342C328.184 39.3943 328.155 39.5384 328.098 39.6641C328.041 39.7879 327.959 39.895 327.85 39.9837C327.74 40.0742 327.601 40.1451 327.438 40.195C327.27 40.2455 327.077 40.2713 326.862 40.2713H326.105V38.2851ZM326.91 37.692H325.585C325.504 37.692 325.439 37.7579 325.439 37.8392V43.0607C325.439 43.142 325.504 43.2079 325.585 43.2079H325.959C326.04 43.2079 326.105 43.142 326.105 43.0607V40.846H326.638C326.748 40.846 326.789 40.8607 326.799 40.8657C326.825 40.878 326.852 40.9014 326.879 40.9371L328.542 43.0558C328.581 43.1069 328.625 43.1451 328.672 43.1691C328.72 43.195 328.777 43.2079 328.84 43.2079H329.166C329.223 43.2079 329.274 43.1753 329.298 43.1248C329.322 43.0737 329.316 43.0133 329.281 42.9689L327.527 40.753C327.657 40.7228 327.78 40.6828 327.893 40.6329C328.089 40.546 328.26 40.4333 328.4 40.2978C328.542 40.1599 328.653 39.9979 328.729 39.815C328.804 39.6327 328.843 39.43 328.843 39.212C328.843 38.7162 328.674 38.3331 328.343 38.072C328.022 37.8201 327.54 37.692 326.91 37.692ZM301.968 40.655H302.933C303.163 40.655 303.369 40.623 303.55 40.559C303.731 40.4949 303.884 40.4062 304.01 40.2929C304.136 40.1802 304.233 40.0465 304.3 39.8926C304.368 39.7392 304.401 39.5711 304.401 39.3888C304.401 38.9878 304.278 38.6792 304.033 38.4631C303.786 38.2463 303.42 38.1379 302.933 38.1379H301.968V40.655ZM302.933 37.8392C303.543 37.8392 304.002 37.9734 304.311 38.2413C304.62 38.5099 304.775 38.8923 304.775 39.3888C304.775 39.6179 304.733 39.8279 304.649 40.02C304.564 40.2122 304.443 40.3773 304.284 40.5165C304.124 40.6557 303.931 40.7634 303.704 40.841C303.476 40.9186 303.22 40.9574 302.933 40.9574H301.968V43.0607H301.594V37.8392H302.933ZM305.289 41.1644H307.615L306.555 38.5259C306.538 38.484 306.521 38.4366 306.504 38.3836C306.487 38.3306 306.469 38.2746 306.452 38.2155C306.435 38.2746 306.418 38.3306 306.401 38.3836C306.384 38.4366 306.367 38.4846 306.349 38.529L305.289 41.1644ZM306.64 37.8392L308.764 43.0607H308.474C308.44 43.0607 308.412 43.0515 308.39 43.033C308.368 43.0145 308.351 42.9905 308.339 42.9609L307.726 41.4446H305.175L304.566 42.9609C304.556 42.988 304.539 43.0114 304.515 43.0312C304.491 43.0509 304.461 43.0607 304.427 43.0607H304.14L306.265 37.8392H306.64ZM309.52 40.4185H310.423C310.653 40.4185 310.859 40.3908 311.041 40.3354C311.223 40.2806 311.378 40.2011 311.503 40.0977C311.629 39.9942 311.726 39.8698 311.792 39.725C311.857 39.5797 311.89 39.4165 311.89 39.2342C311.89 38.8628 311.77 38.5869 311.527 38.4076C311.285 38.2278 310.933 38.1379 310.471 38.1379H309.52V40.4185ZM310.471 37.8392C311.07 37.8392 311.517 37.9556 311.814 38.1878C312.11 38.4206 312.258 38.7618 312.258 39.212C312.258 39.4109 312.223 39.5932 312.155 39.7583C312.086 39.9227 311.988 40.0675 311.859 40.1919C311.731 40.3157 311.576 40.4179 311.395 40.498C311.214 40.578 311.01 40.6304 310.782 40.655C310.841 40.692 310.894 40.7406 310.94 40.8022L312.727 43.0607H312.4C312.361 43.0607 312.328 43.0533 312.299 43.0385C312.272 43.0238 312.244 42.9991 312.217 42.9646L310.555 40.8466C310.513 40.7924 310.469 40.7542 310.421 40.732C310.373 40.7098 310.299 40.6988 310.199 40.6988H309.52V43.0607H309.146V37.8392H310.471ZM316.342 37.8392V38.16H314.518V43.0607H314.143V38.16H312.309V37.8392H316.342ZM320.697 37.8392V43.0607H320.517C320.462 43.0607 320.416 43.0361 320.382 42.9868L317.006 38.4551C317.013 38.529 317.017 38.5992 317.017 38.6657V43.0607H316.69V37.8392H316.874C316.908 37.8392 316.935 37.8435 316.955 37.8521C316.974 37.8607 316.995 37.8798 317.017 37.9094L320.378 42.4337C320.371 42.3598 320.367 42.2884 320.367 42.2194V37.8392H320.697ZM324.8 37.8392V38.1527H322.066V40.2639H324.341V40.57H322.066V42.7472H324.8V43.0607H321.688V37.8392H324.8ZM325.959 40.4185H326.862C327.092 40.4185 327.298 40.3908 327.48 40.3354C327.663 40.2806 327.817 40.2011 327.943 40.0977C328.069 39.9942 328.165 39.8698 328.231 39.725C328.297 39.5797 328.33 39.4165 328.33 39.2342C328.33 38.8628 328.209 38.5869 327.966 38.4076C327.725 38.2278 327.372 38.1379 326.91 38.1379H325.959V40.4185ZM326.91 37.8392C327.509 37.8392 327.957 37.9556 328.252 38.1878C328.549 38.4206 328.697 38.7618 328.697 39.212C328.697 39.4109 328.663 39.5932 328.594 39.7583C328.526 39.9227 328.427 40.0675 328.298 40.1919C328.17 40.3157 328.015 40.4179 327.834 40.498C327.654 40.578 327.449 40.6304 327.222 40.655C327.281 40.692 327.333 40.7406 327.38 40.8022L329.166 43.0607H328.84C328.801 43.0607 328.767 43.0533 328.739 43.0385C328.711 43.0238 328.684 42.9991 328.657 42.9646L326.995 40.8466C326.952 40.7924 326.908 40.7542 326.86 40.732C326.813 40.7098 326.739 40.6988 326.638 40.6988H325.959V43.0607H325.585V37.8392H326.91Z" fill="white"/>
<path d="M302.377 29.4854C302.337 29.4854 302.304 29.4522 302.304 29.4121V27.2584L300.398 24.2319C300.383 24.2091 300.383 24.1807 300.395 24.1573C300.408 24.1339 300.433 24.1191 300.459 24.1191H300.786C300.835 24.1191 300.878 24.1321 300.912 24.1579C300.94 24.1801 300.966 24.2084 300.989 24.2448L302.476 26.6437C302.513 26.7028 302.543 26.7601 302.568 26.8155C302.594 26.7601 302.624 26.7028 302.66 26.6449L304.142 24.246C304.16 24.2128 304.185 24.1838 304.215 24.1604C304.249 24.1339 304.292 24.1191 304.343 24.1191H304.673C304.7 24.1191 304.724 24.1339 304.738 24.1573C304.75 24.1807 304.749 24.2091 304.735 24.2319L302.817 27.2972L302.828 29.4121C302.828 29.4522 302.796 29.4854 302.755 29.4854H302.377ZM311.787 27.4431C311.787 27.4431 310.745 24.8477 310.733 24.8145C310.721 24.8477 310.709 24.8792 310.698 24.9093L309.678 27.4431H311.787ZM312.753 29.4854C312.701 29.4854 312.658 29.4706 312.623 29.4411C312.592 29.4152 312.568 29.382 312.551 29.3413L311.957 27.8699H309.506L308.915 29.3401C308.902 29.3764 308.877 29.4115 308.842 29.4399C308.803 29.4706 308.758 29.4854 308.708 29.4854H308.422C308.398 29.4854 308.375 29.4731 308.362 29.4528C308.357 29.4454 308.353 29.4368 308.351 29.4275C308.344 29.4608 308.314 29.4854 308.279 29.4854H305.169C305.128 29.4854 305.095 29.4522 305.095 29.4121V24.1924C305.095 24.1524 305.128 24.1191 305.169 24.1191H308.279C308.32 24.1191 308.352 24.1524 308.352 24.1924V24.5065C308.352 24.5472 308.32 24.5798 308.279 24.5798H305.62V26.5427H307.821C307.861 26.5427 307.894 26.5753 307.894 26.616V26.9227C307.894 26.9627 307.861 26.996 307.821 26.996H305.62V29.0254H308.279C308.32 29.0254 308.352 29.0586 308.352 29.0986V29.3906C308.353 29.3887 310.478 24.1647 310.478 24.1647C310.489 24.137 310.516 24.1191 310.546 24.1191H310.92C310.95 24.1191 310.976 24.137 310.988 24.1647L313.111 29.3844C313.121 29.4066 313.118 29.4325 313.104 29.4528C313.091 29.4731 313.068 29.4854 313.044 29.4854H312.753ZM314.885 26.6979C315.106 26.6979 315.307 26.6708 315.481 26.6178C315.654 26.5655 315.801 26.4903 315.919 26.393C316.035 26.2982 316.125 26.1818 316.187 26.0469C316.247 25.912 316.279 25.7574 316.279 25.5874C316.279 25.2376 316.17 24.9857 315.945 24.82C315.717 24.6507 315.377 24.5651 314.932 24.5651H314.055V26.6979H314.885ZM316.862 29.4854C316.81 29.4854 316.765 29.475 316.727 29.4546C316.69 29.4362 316.655 29.4054 316.621 29.3623L314.959 27.2442C314.924 27.1986 314.89 27.1684 314.852 27.1512C314.827 27.1389 314.772 27.1247 314.661 27.1247H314.055V29.4121C314.055 29.4522 314.023 29.4854 313.982 29.4854H313.608C313.567 29.4854 313.535 29.4522 313.535 29.4121V24.1924C313.535 24.1524 313.567 24.1191 313.608 24.1191H314.932C315.546 24.1191 316.013 24.2417 316.32 24.4838C316.633 24.7289 316.791 25.0929 316.791 25.5653C316.791 25.7728 316.756 25.9656 316.683 26.1387C316.611 26.3142 316.505 26.4682 316.372 26.5975C316.238 26.7268 316.074 26.8346 315.886 26.9178C315.743 26.9812 315.586 27.0274 315.416 27.0576C315.431 27.0736 317.245 29.3666 317.245 29.3666C317.263 29.3887 317.266 29.4189 317.254 29.4442C317.242 29.4694 317.216 29.4854 317.188 29.4854H316.862ZM318.842 29.5446C318.49 29.5446 318.182 29.4805 317.926 29.3542C317.672 29.2292 317.446 29.0555 317.254 28.8375C317.233 28.8129 317.23 28.7778 317.248 28.7501L317.35 28.5875C317.409 28.5123 317.472 28.4975 317.515 28.4975C317.555 28.4975 317.598 28.5179 317.647 28.5591L317.772 28.6688C317.82 28.7106 317.877 28.7556 317.943 28.8049C318.008 28.8529 318.084 28.8973 318.171 28.9385C318.256 28.9792 318.356 29.0137 318.469 29.0414C318.58 29.0697 318.709 29.0845 318.851 29.0845C319.048 29.0845 319.224 29.0543 319.376 28.9946C319.528 28.9354 319.658 28.8554 319.761 28.7544C319.866 28.6521 319.944 28.5345 319.999 28.3947C320.054 28.2549 320.082 28.104 320.082 27.9438C320.082 27.7745 320.048 27.6341 319.982 27.5275C319.913 27.4191 319.821 27.3255 319.708 27.251C319.591 27.1752 319.457 27.1105 319.307 27.0582C319.152 27.0046 318.993 26.9516 318.83 26.9005C318.664 26.8482 318.502 26.789 318.344 26.725C318.184 26.6579 318.037 26.5723 317.909 26.4688C317.779 26.3622 317.673 26.2286 317.594 26.0715C317.515 25.9126 317.474 25.7131 317.474 25.4797C317.474 25.2961 317.51 25.1163 317.579 24.9469C317.65 24.7745 317.753 24.6217 317.886 24.4924C318.02 24.3618 318.186 24.2565 318.382 24.1783C318.578 24.1001 318.802 24.06 319.05 24.06C319.327 24.06 319.58 24.1056 319.802 24.1943C320.024 24.2842 320.229 24.4215 320.412 24.6051C320.435 24.6279 320.44 24.663 320.426 24.6913L320.337 24.8607C320.303 24.9278 320.246 24.9635 320.177 24.9635C320.125 24.9635 320.071 24.9358 320.005 24.8767C319.957 24.8323 319.892 24.7843 319.811 24.732C319.729 24.6796 319.629 24.6322 319.503 24.5866C319.383 24.5429 319.231 24.5201 319.052 24.5201C318.874 24.5201 318.714 24.546 318.578 24.5971C318.445 24.6476 318.332 24.7166 318.242 24.8022C318.152 24.8902 318.085 24.9882 318.039 25.1021C317.993 25.2161 317.969 25.3374 317.969 25.4618C317.969 25.6238 318.003 25.758 318.069 25.8603C318.138 25.9674 318.231 26.0598 318.343 26.135C318.462 26.2126 318.597 26.2791 318.745 26.3314C318.9 26.3856 319.059 26.4411 319.223 26.4953C319.388 26.5495 319.55 26.6098 319.707 26.6757C319.869 26.7435 320.015 26.8297 320.142 26.9319C320.272 27.0354 320.378 27.1654 320.457 27.3181C320.536 27.4708 320.577 27.663 320.577 27.8884C320.577 28.1157 320.537 28.3331 320.46 28.5326C320.381 28.7347 320.267 28.912 320.119 29.0617C319.971 29.2107 319.787 29.3296 319.574 29.4158C319.361 29.5008 319.115 29.5446 318.842 29.5446Z" fill="white"/>
<path d="M304.674 24.0458H304.344C304.276 24.0458 304.217 24.0649 304.169 24.1031C304.132 24.132 304.1 24.1696 304.076 24.2151L302.598 26.6048C302.588 26.6221 302.578 26.6387 302.568 26.6559C302.559 26.6393 302.549 26.6227 302.539 26.606L301.053 24.2071C301.022 24.1597 300.991 24.1258 300.957 24.1C300.911 24.0642 300.853 24.0458 300.786 24.0458H300.459C300.406 24.0458 300.357 24.0747 300.331 24.1215C300.306 24.1683 300.307 24.2256 300.336 24.2712L302.231 27.3002V29.4121C302.231 29.4927 302.297 29.5586 302.378 29.5586H302.755C302.836 29.5586 302.902 29.4927 302.902 29.4121V27.3002L304.797 24.2712C304.826 24.2256 304.827 24.1683 304.802 24.1215C304.776 24.0747 304.727 24.0458 304.674 24.0458ZM309.787 27.3691L310.733 25.0177L311.679 27.3691H309.787ZM310.92 24.0458H310.546C310.486 24.0458 310.433 24.0821 310.41 24.1369L308.414 29.0425C308.392 28.9889 308.34 28.9514 308.279 28.9514H305.693V27.0692H307.82C307.901 27.0692 307.967 27.0033 307.967 26.922V26.6159C307.967 26.5346 307.901 26.4693 307.82 26.4693H305.693V24.653H308.279C308.36 24.653 308.426 24.5878 308.426 24.5065V24.193C308.426 24.1117 308.36 24.0458 308.279 24.0458H305.168C305.088 24.0458 305.023 24.1117 305.023 24.193V29.4121C305.023 29.4927 305.088 29.5586 305.168 29.5586H308.279C308.305 29.5586 308.329 29.5519 308.351 29.5402C308.372 29.5525 308.397 29.5586 308.422 29.5586H308.708C308.775 29.5586 308.837 29.5377 308.887 29.4971C308.933 29.4607 308.966 29.4158 308.985 29.3628L309.555 27.9432H311.907L312.482 29.3677C312.504 29.4201 312.536 29.4632 312.575 29.4971C312.624 29.5377 312.686 29.5586 312.754 29.5586H313.043C313.092 29.5586 313.138 29.5346 313.165 29.494C313.192 29.4533 313.197 29.4016 313.179 29.356L311.055 24.1369C311.033 24.0821 310.979 24.0458 310.92 24.0458ZM314.129 24.6383H314.932C315.361 24.6383 315.687 24.7196 315.902 24.8791C316.106 25.0306 316.205 25.2622 316.205 25.5874C316.205 25.7469 316.177 25.8916 316.12 26.016C316.063 26.1398 315.98 26.2476 315.872 26.3363C315.762 26.4268 315.624 26.4976 315.461 26.5475C315.293 26.598 315.099 26.6239 314.885 26.6239H314.129V24.6383ZM314.932 24.0458H313.609C313.528 24.0458 313.462 24.1117 313.462 24.193V29.4121C313.462 29.4927 313.528 29.5586 313.609 29.5586H313.982C314.063 29.5586 314.129 29.4927 314.129 29.4121V27.1979H314.661C314.771 27.1979 314.812 27.2133 314.822 27.2176C314.848 27.2299 314.874 27.254 314.901 27.2891L316.564 29.4071C316.604 29.4583 316.647 29.4964 316.694 29.5205C316.741 29.5457 316.798 29.5586 316.862 29.5586H317.188C317.244 29.5586 317.296 29.5266 317.32 29.4755C317.344 29.425 317.337 29.3646 317.302 29.3203L315.55 27.1049C315.679 27.0754 315.802 27.0347 315.916 26.9848C316.111 26.8986 316.282 26.7859 316.422 26.6504C316.564 26.513 316.675 26.3504 316.751 26.1675C316.826 25.9852 316.865 25.7826 316.865 25.5652C316.865 25.0694 316.697 24.6857 316.365 24.4252C316.044 24.1733 315.562 24.0458 314.932 24.0458ZM319.05 23.9866C318.792 23.9866 318.559 24.0279 318.355 24.1098C318.151 24.1917 317.975 24.3026 317.835 24.4393C317.694 24.5773 317.585 24.7387 317.511 24.9191C317.438 25.0983 317.402 25.2874 317.402 25.4802C317.402 25.7265 317.444 25.9366 317.529 26.1053C317.613 26.2716 317.725 26.4133 317.863 26.5254C317.996 26.6338 318.149 26.7237 318.317 26.7927C318.476 26.8579 318.641 26.9177 318.808 26.97C318.971 27.0212 319.129 27.0741 319.283 27.1277C319.426 27.1776 319.556 27.2398 319.668 27.3131C319.772 27.3808 319.857 27.4664 319.92 27.5668C319.979 27.6617 320.009 27.7886 320.009 27.9438C320.009 28.094 319.983 28.2363 319.932 28.3669C319.881 28.4962 319.806 28.6083 319.711 28.7013C319.614 28.7955 319.492 28.8707 319.35 28.9261C319.206 28.9822 319.038 29.0105 318.851 29.0105C318.715 29.0105 318.592 28.9969 318.486 28.9705C318.378 28.9434 318.282 28.9095 318.201 28.8713C318.119 28.8319 318.046 28.7894 317.986 28.7457C317.922 28.6982 317.866 28.6545 317.82 28.6132L317.694 28.5036C317.631 28.45 317.573 28.4242 317.514 28.4242C317.455 28.4242 317.37 28.4433 317.297 28.5344L317.186 28.7099C317.151 28.7648 317.157 28.8368 317.199 28.8861C317.397 29.1109 317.631 29.2907 317.894 29.4201C318.16 29.5513 318.479 29.6178 318.842 29.6178C319.124 29.6178 319.379 29.5728 319.601 29.4841C319.824 29.3942 320.016 29.2698 320.17 29.114C320.326 28.9575 320.447 28.7709 320.528 28.5597C320.609 28.3503 320.65 28.1248 320.65 27.889C320.65 27.6518 320.607 27.4486 320.521 27.2841C320.437 27.1222 320.325 26.9842 320.187 26.874C320.055 26.7674 319.903 26.6775 319.736 26.6079C319.576 26.5414 319.413 26.4804 319.246 26.425C319.082 26.3714 318.924 26.3166 318.769 26.2618C318.626 26.2106 318.496 26.1472 318.384 26.0727C318.279 26.0031 318.193 25.9181 318.13 25.8202C318.072 25.7296 318.042 25.6089 318.042 25.4617C318.042 25.3447 318.063 25.2363 318.107 25.1297C318.149 25.0269 318.212 24.9345 318.293 24.8557C318.375 24.7768 318.48 24.7128 318.604 24.666C318.731 24.6186 318.881 24.5939 319.052 24.5939C319.222 24.5939 319.366 24.6149 319.478 24.6555C319.597 24.6986 319.695 24.7454 319.771 24.7941C319.849 24.8446 319.911 24.8902 319.956 24.9308C320.036 25.0035 320.106 25.0367 320.177 25.0367C320.273 25.0367 320.355 24.9856 320.402 24.8957L320.49 24.7251C320.52 24.6684 320.509 24.5988 320.464 24.5533C320.275 24.363 320.061 24.2195 319.829 24.1265C319.599 24.0335 319.337 23.9866 319.05 23.9866ZM304.674 24.193L302.755 27.2577V29.4121H302.378V27.2577L300.459 24.193H300.786C300.82 24.193 300.848 24.201 300.868 24.217C300.889 24.2324 300.91 24.2552 300.929 24.2854L302.414 26.6824C302.449 26.7391 302.478 26.7939 302.503 26.8469C302.527 26.8992 302.549 26.9528 302.568 27.007C302.588 26.9528 302.61 26.8992 302.634 26.8469C302.659 26.7939 302.688 26.7391 302.722 26.6824L304.204 24.2854C304.219 24.2576 304.237 24.2355 304.259 24.2188C304.281 24.2016 304.309 24.193 304.344 24.193H304.674ZM308.279 24.193V24.5065H305.546V26.6159H307.82V26.922H305.546V29.0986H308.279V29.4121H305.168V24.193H308.279ZM309.57 27.5163H311.896L310.835 24.8791C310.818 24.8372 310.801 24.7898 310.784 24.7368C310.767 24.6838 310.75 24.6278 310.733 24.5687C310.715 24.6278 310.698 24.6838 310.681 24.7368C310.664 24.7898 310.647 24.8378 310.63 24.8822L309.57 27.5163ZM310.92 24.193L313.043 29.4121H312.754C312.719 29.4121 312.691 29.4028 312.669 29.3843C312.647 29.3659 312.63 29.3418 312.618 29.3123L312.005 27.7966H309.456L308.847 29.3123C308.838 29.3394 308.821 29.3628 308.796 29.3825C308.772 29.4022 308.742 29.4121 308.708 29.4121H308.422L310.546 24.193H310.92ZM313.982 26.7711H314.885C315.115 26.7711 315.32 26.7434 315.503 26.688C315.685 26.6325 315.839 26.5537 315.965 26.4502C316.091 26.3468 316.187 26.2223 316.253 26.0776C316.319 25.9323 316.352 25.769 316.352 25.5874C316.352 25.216 316.231 24.9401 315.989 24.7608C315.747 24.581 315.395 24.4917 314.932 24.4917H313.982V26.7711ZM314.932 24.193C315.532 24.193 315.979 24.3088 316.275 24.5416C316.57 24.7738 316.719 25.115 316.719 25.5652C316.719 25.7641 316.684 25.9458 316.616 26.1109C316.547 26.2753 316.449 26.42 316.321 26.5445C316.193 26.6683 316.038 26.7705 315.857 26.8499C315.676 26.93 315.472 26.9824 315.244 27.007C315.303 27.0439 315.355 27.0932 315.402 27.1548L317.188 29.4121H316.862C316.823 29.4121 316.789 29.4047 316.761 29.3899C316.733 29.3751 316.705 29.3505 316.678 29.316L315.017 27.1985C314.975 27.145 314.93 27.1068 314.883 27.0846C314.835 27.0624 314.761 27.0513 314.661 27.0513H313.982V29.4121H313.609V24.193H314.932ZM319.05 24.1338C319.319 24.1338 319.561 24.177 319.775 24.2632C319.989 24.3488 320.185 24.4806 320.361 24.6574L320.273 24.8273C320.251 24.8692 320.219 24.8902 320.177 24.8902C320.145 24.8902 320.104 24.8674 320.054 24.8218C320.004 24.7762 319.936 24.7257 319.85 24.6703C319.764 24.6149 319.657 24.5644 319.528 24.5175C319.399 24.4707 319.24 24.4473 319.052 24.4473C318.862 24.4473 318.696 24.4744 318.553 24.5286C318.409 24.5822 318.289 24.6561 318.192 24.7497C318.095 24.8434 318.021 24.9511 317.971 25.0743C317.921 25.1975 317.896 25.3262 317.896 25.4617C317.896 25.6385 317.933 25.7851 318.008 25.9002C318.083 26.016 318.181 26.1146 318.304 26.1959C318.426 26.2765 318.565 26.3449 318.721 26.4003C318.876 26.4558 319.036 26.5106 319.2 26.5648C319.364 26.6184 319.524 26.6781 319.679 26.7434C319.835 26.8087 319.974 26.8906 320.096 26.9885C320.218 27.0871 320.317 27.2078 320.392 27.3519C320.466 27.496 320.504 27.6746 320.504 27.889C320.504 28.1076 320.466 28.3133 320.392 28.5067C320.317 28.6995 320.209 28.8676 320.068 29.0099C319.925 29.1522 319.752 29.2649 319.546 29.3474C319.341 29.4299 319.107 29.4712 318.842 29.4712C318.5 29.4712 318.205 29.4102 317.958 29.2883C317.711 29.1663 317.495 29 317.309 28.7888L317.412 28.6262C317.441 28.5892 317.475 28.5707 317.514 28.5707C317.536 28.5707 317.564 28.5855 317.599 28.6151C317.633 28.6447 317.675 28.681 317.724 28.7241C317.773 28.7672 317.832 28.814 317.9 28.8639C317.969 28.915 318.048 28.9612 318.139 29.0043C318.23 29.0474 318.334 29.0838 318.451 29.1133C318.569 29.1429 318.702 29.1577 318.851 29.1577C319.057 29.1577 319.241 29.1263 319.402 29.0635C319.564 29.0006 319.701 28.9156 319.812 28.8073C319.924 28.6989 320.008 28.5701 320.068 28.4217C320.126 28.2727 320.155 28.1138 320.155 27.9438C320.155 27.7596 320.118 27.6075 320.043 27.488C319.968 27.3691 319.87 27.2694 319.748 27.1893C319.625 27.1098 319.486 27.0427 319.331 26.9885C319.175 26.9343 319.015 26.8813 318.851 26.8302C318.687 26.7785 318.527 26.7206 318.372 26.6565C318.217 26.5925 318.078 26.5106 317.955 26.4114C317.833 26.3116 317.734 26.1872 317.659 26.0388C317.585 25.8904 317.547 25.7038 317.547 25.4802C317.547 25.3053 317.58 25.1371 317.647 24.9745C317.713 24.8126 317.809 24.6691 317.937 24.5446C318.064 24.4209 318.222 24.3217 318.409 24.2459C318.596 24.1714 318.81 24.1338 319.05 24.1338Z" fill="white"/>
<path d="M301.62 36.3132C301.579 36.3132 301.547 36.2805 301.547 36.2399V31.0177C301.547 30.9771 301.579 30.9444 301.62 30.9444H301.997C302.038 30.9444 302.07 30.9771 302.07 31.0177V36.2399C302.07 36.2805 302.038 36.3132 301.997 36.3132H301.62ZM306.634 36.3132C306.553 36.3132 306.485 36.2768 306.438 36.2078L303.205 31.8689V36.2399C303.205 36.2805 303.173 36.3132 303.132 36.3132H302.806C302.765 36.3132 302.732 36.2805 302.732 36.2399V31.0177C302.732 30.9771 302.765 30.9444 302.806 30.9444H302.989C303.035 30.9444 303.071 30.9512 303.1 30.9641C303.131 30.9771 303.162 31.0041 303.19 31.0448L306.409 35.3764V31.0177C306.409 30.9771 306.442 30.9444 306.482 30.9444H306.812C306.853 30.9444 306.886 30.9771 306.886 31.0177V36.2399C306.886 36.2805 306.853 36.3132 306.812 36.3132H306.634ZM309.553 36.3132C309.524 36.3132 309.497 36.2953 309.486 36.2682L307.343 31.046C307.333 31.0232 307.336 30.9974 307.349 30.9771C307.363 30.9567 307.386 30.9444 307.41 30.9444H307.707C307.759 30.9444 307.803 30.9598 307.838 30.9888C307.869 31.0146 307.893 31.0479 307.91 31.0891L309.679 35.4226C309.695 35.4589 309.709 35.4971 309.722 35.5353C309.736 35.4965 309.749 35.4583 309.764 35.4226L311.53 31.0904C311.548 31.0491 311.572 31.0171 311.603 30.9912C311.64 30.9604 311.686 30.9444 311.737 30.9444H312.03C312.054 30.9444 312.077 30.9567 312.091 30.9771C312.104 30.9974 312.107 31.0232 312.097 31.046L309.954 36.2682C309.943 36.2953 309.916 36.3132 309.887 36.3132H309.553ZM312.627 36.3132C312.587 36.3132 312.554 36.2805 312.554 36.2399V31.0177C312.554 30.9771 312.587 30.9444 312.627 30.9444H315.739C315.779 30.9444 315.812 30.9771 315.812 31.0177V31.3312C315.812 31.3725 315.779 31.4045 315.739 31.4045H313.078V33.3692H315.28C315.321 33.3692 315.353 33.4018 315.353 33.4425V33.7486C315.353 33.7892 315.321 33.8219 315.28 33.8219H313.078V35.8525H315.739C315.779 35.8525 315.812 35.8851 315.812 35.9258V36.2399C315.812 36.2805 315.779 36.3132 315.739 36.3132H312.627ZM321.535 36.3132C321.494 36.3132 321.461 36.2805 321.461 36.2399V31.4125H319.7C319.659 31.4125 319.627 31.3798 319.627 31.3392V31.0177C319.627 30.9771 319.659 30.9444 319.7 30.9444H323.733C323.774 30.9444 323.806 30.9771 323.806 31.0177V31.3392C323.806 31.3798 323.774 31.4125 323.733 31.4125H321.982V36.2399C321.982 36.2805 321.949 36.3132 321.909 36.3132H321.535ZM329.203 36.3132C329.163 36.3132 329.13 36.2805 329.13 36.2399V31.8861L327.233 35.2723C327.175 35.3819 327.086 35.4047 327.023 35.4047C326.903 35.4047 326.818 35.3819 326.754 35.2729L324.803 31.8769V36.2399C324.803 36.2805 324.771 36.3132 324.73 36.3132H324.403C324.363 36.3132 324.33 36.2805 324.33 36.2399V31.0177C324.33 30.9771 324.363 30.9444 324.403 30.9444H324.66C324.702 30.9444 324.737 30.9493 324.766 30.9592C324.804 30.9734 324.837 31.0041 324.866 31.0503L326.962 34.6829C326.973 34.7038 326.984 34.7248 326.995 34.7463C327.005 34.7235 327.017 34.7007 327.029 34.6792L329.07 31.0522C329.1 31.0023 329.13 30.974 329.165 30.9604C329.194 30.9493 329.229 30.9444 329.272 30.9444H329.533C329.574 30.9444 329.606 30.9771 329.606 31.0177V36.2399C329.606 36.2805 329.574 36.3132 329.533 36.3132H329.203ZM330.202 36.3132C330.162 36.3132 330.129 36.2805 330.129 36.2399V31.0177C330.129 30.9771 330.162 30.9444 330.202 30.9444H333.314C333.354 30.9444 333.387 30.9771 333.387 31.0177V31.3312C333.387 31.3725 333.354 31.4045 333.314 31.4045H330.653V33.3692H332.855C332.896 33.3692 332.928 33.4018 332.928 33.4425V33.7486C332.928 33.7892 332.896 33.8219 332.855 33.8219H330.653V35.8525H333.314C333.354 35.8525 333.387 35.8851 333.387 35.9258V36.2399C333.387 36.2805 333.354 36.3132 333.314 36.3132H330.202ZM337.655 36.3132C337.575 36.3132 337.507 36.2768 337.46 36.2078L334.228 31.8695V36.2399C334.228 36.2805 334.195 36.3132 334.155 36.3132H333.828C333.787 36.3132 333.755 36.2805 333.755 36.2399V31.0177C333.755 30.9771 333.787 30.9444 333.828 30.9444H334.011C334.057 30.9444 334.092 30.9506 334.122 30.9641C334.152 30.9771 334.183 31.0035 334.213 31.0436L337.432 35.3764V31.0177C337.432 30.9771 337.464 30.9444 337.505 30.9444H337.835C337.875 30.9444 337.908 30.9771 337.908 31.0177V36.2399C337.908 36.2805 337.875 36.3132 337.835 36.3132H337.655ZM340.34 36.3132C340.3 36.3132 340.267 36.2805 340.267 36.2399V31.4125H338.506C338.465 31.4125 338.432 31.3798 338.432 31.3392V31.0177C338.432 30.9771 338.465 30.9444 338.506 30.9444H342.538C342.578 30.9444 342.611 30.9771 342.611 31.0177V31.3392C342.611 31.3798 342.578 31.4125 342.538 31.4125H340.788V36.2399C340.788 36.2805 340.754 36.3132 340.715 36.3132H340.34ZM317.658 36.3723C317.306 36.3723 316.998 36.3082 316.74 36.182C316.486 36.0563 316.26 35.8826 316.069 35.6646C316.048 35.64 316.045 35.6043 316.062 35.5772L316.165 35.4146C316.223 35.3394 316.286 35.3253 316.329 35.3253C316.37 35.3253 316.413 35.345 316.461 35.3862L316.586 35.4959C316.634 35.5377 316.691 35.5833 316.758 35.6326C316.823 35.68 316.899 35.7244 316.985 35.7656C317.072 35.8063 317.171 35.8408 317.284 35.8697C317.394 35.8968 317.523 35.9116 317.666 35.9116C317.862 35.9116 318.039 35.8814 318.192 35.8223C318.344 35.7625 318.474 35.6819 318.576 35.5815C318.681 35.4799 318.761 35.3591 318.815 35.2218C318.87 35.0814 318.899 34.9299 318.899 34.771C318.899 34.6016 318.864 34.4612 318.798 34.354C318.728 34.245 318.636 34.1514 318.523 34.0781C318.407 34.0023 318.273 33.9377 318.122 33.8847C317.967 33.8311 317.808 33.7781 317.645 33.727C317.479 33.6747 317.317 33.6155 317.16 33.5515C316.998 33.4844 316.851 33.3987 316.724 33.2947C316.594 33.1893 316.487 33.0557 316.409 32.898C316.329 32.7385 316.289 32.5396 316.289 32.3055C316.289 32.1232 316.324 31.944 316.394 31.7728C316.464 31.5997 316.568 31.447 316.701 31.3176C316.835 31.1871 317.002 31.0818 317.197 31.0035C317.391 30.9253 317.616 30.8853 317.865 30.8853C318.143 30.8853 318.397 30.9309 318.618 31.0202C318.84 31.1095 319.045 31.2468 319.228 31.4303C319.251 31.4531 319.256 31.4882 319.241 31.5166L319.153 31.6859C319.118 31.7531 319.061 31.7888 318.993 31.7888C318.941 31.7888 318.886 31.7611 318.821 31.702C318.773 31.6576 318.707 31.6108 318.626 31.5578C318.546 31.5061 318.442 31.4568 318.319 31.4119C318.198 31.3681 318.046 31.346 317.867 31.346C317.687 31.346 317.529 31.3718 317.394 31.4223C317.26 31.4728 317.148 31.5418 317.058 31.6281C316.969 31.7137 316.9 31.8147 316.854 31.928C316.808 32.0413 316.784 32.1626 316.784 32.2877C316.784 32.449 316.817 32.5833 316.884 32.6868C316.953 32.7933 317.045 32.8857 317.159 32.9608C317.277 33.0384 317.412 33.105 317.56 33.1573C317.715 33.2121 317.875 33.2669 318.038 33.3211C318.204 33.3753 318.366 33.4357 318.523 33.5022C318.684 33.5693 318.83 33.6556 318.957 33.7584C319.087 33.8619 319.193 33.9912 319.272 34.1446C319.352 34.298 319.393 34.4901 319.393 34.7155C319.393 34.9428 319.353 35.1602 319.276 35.3598C319.197 35.5624 319.083 35.7404 318.934 35.8894C318.786 36.0385 318.603 36.1573 318.389 36.2436C318.175 36.3286 317.929 36.3723 317.658 36.3723Z" fill="white"/>
<path d="M301.998 30.871H301.62C301.539 30.871 301.473 30.9369 301.473 31.0182V36.2397C301.473 36.321 301.539 36.3863 301.62 36.3863H301.998C302.078 36.3863 302.144 36.321 302.144 36.2397V31.0182C302.144 30.9369 302.078 30.871 301.998 30.871ZM306.813 30.871H306.483C306.402 30.871 306.336 30.9369 306.336 31.0182V35.1551L303.249 31.0003C303.212 30.9498 303.173 30.9159 303.129 30.8968C303.089 30.879 303.044 30.871 302.989 30.871H302.806C302.725 30.871 302.66 30.9369 302.66 31.0182V36.2397C302.66 36.321 302.725 36.3863 302.806 36.3863H303.133C303.213 36.3863 303.279 36.321 303.279 36.2397V32.0904L306.38 36.2539C306.439 36.3383 306.53 36.3863 306.633 36.3863H306.813C306.894 36.3863 306.959 36.321 306.959 36.2397V31.0182C306.959 30.9369 306.894 30.871 306.813 30.871ZM312.033 30.871H312.03H311.736C311.668 30.871 311.606 30.8931 311.556 30.935C311.516 30.9695 311.485 31.0102 311.464 31.057L309.722 35.3325L307.978 31.0619C307.957 31.0096 307.926 30.9664 307.885 30.9326C307.837 30.8925 307.776 30.871 307.708 30.871H307.41C307.361 30.871 307.316 30.8956 307.289 30.9363C307.262 30.9769 307.256 31.0286 307.275 31.0742L309.418 36.2958C309.441 36.3506 309.494 36.3863 309.553 36.3863H309.887C309.946 36.3863 309.999 36.3506 310.022 36.2958L312.159 31.0902C312.171 31.0687 312.178 31.044 312.178 31.0182C312.178 30.9369 312.114 30.871 312.033 30.871ZM315.739 30.871H312.627C312.546 30.871 312.481 30.9369 312.481 31.0182V36.2397C312.481 36.321 312.546 36.3863 312.627 36.3863H315.739C315.819 36.3863 315.885 36.321 315.885 36.2397V35.9262C315.885 35.8449 315.819 35.779 315.739 35.779H313.152V33.8956H315.28C315.361 33.8956 315.426 33.8297 315.426 33.7484V33.4423C315.426 33.361 315.361 33.2958 315.28 33.2958H313.152V31.4789H315.739C315.819 31.4789 315.885 31.413 315.885 31.3317V31.0182C315.885 30.9369 315.819 30.871 315.739 30.871ZM323.733 30.871H319.7C319.619 30.871 319.554 30.9369 319.554 31.0182V31.3391C319.554 31.4204 319.619 31.4863 319.7 31.4863H321.388V36.2397C321.388 36.321 321.454 36.3863 321.535 36.3863H321.909C321.99 36.3863 322.055 36.321 322.055 36.2397V31.4863H323.733C323.814 31.4863 323.879 31.4204 323.879 31.3391V31.0182C323.879 30.9369 323.814 30.871 323.733 30.871ZM329.533 30.871H329.273C329.22 30.871 329.176 30.8778 329.14 30.8913C329.089 30.911 329.047 30.9498 329.009 31.0108L326.994 34.5922L324.93 31.0145C324.89 30.9498 324.844 30.9092 324.792 30.8907C324.755 30.8771 324.712 30.871 324.66 30.871H324.403C324.323 30.871 324.257 30.9369 324.257 31.0182V36.2397C324.257 36.321 324.323 36.3863 324.403 36.3863H324.73C324.811 36.3863 324.876 36.321 324.876 36.2397V32.1502L326.691 35.3097C326.754 35.4187 326.851 35.4791 326.965 35.4791H327.024C327.141 35.4791 327.239 35.4175 327.299 35.306L329.057 32.1668V36.2397C329.057 36.321 329.122 36.3863 329.203 36.3863H329.533C329.614 36.3863 329.679 36.321 329.679 36.2397V31.0182C329.679 30.9369 329.614 30.871 329.533 30.871ZM333.314 30.871H330.202C330.121 30.871 330.056 30.9369 330.056 31.0182V36.2397C330.056 36.321 330.121 36.3863 330.202 36.3863H333.314C333.394 36.3863 333.46 36.321 333.46 36.2397V35.9262C333.46 35.8449 333.394 35.779 333.314 35.779H330.726V33.8956H332.855C332.936 33.8956 333.001 33.8297 333.001 33.7484V33.4423C333.001 33.361 332.936 33.2958 332.855 33.2958H330.726V31.4789H333.314C333.394 31.4789 333.46 31.413 333.46 31.3317V31.0182C333.46 30.9369 333.394 30.871 333.314 30.871ZM337.835 30.871H337.505C337.424 30.871 337.359 30.9369 337.359 31.0182V35.1551L334.271 31.0003C334.234 30.9498 334.195 30.9159 334.152 30.8968C334.111 30.879 334.066 30.871 334.012 30.871H333.828C333.747 30.871 333.682 30.9369 333.682 31.0182V36.2397C333.682 36.321 333.747 36.3863 333.828 36.3863H334.154C334.235 36.3863 334.301 36.321 334.301 36.2397V32.0904L337.403 36.2539C337.461 36.3383 337.552 36.3863 337.655 36.3863H337.835C337.916 36.3863 337.982 36.321 337.982 36.2397V31.0182C337.982 30.9369 337.916 30.871 337.835 30.871ZM342.538 30.871H338.506C338.425 30.871 338.359 30.9369 338.359 31.0182V31.3391C338.359 31.4204 338.425 31.4863 338.506 31.4863H340.194V36.2397C340.194 36.321 340.26 36.3863 340.34 36.3863H340.715C340.795 36.3863 340.861 36.321 340.861 36.2397V31.4863H342.538C342.619 31.4863 342.685 31.4204 342.685 31.3391V31.0182C342.685 30.9369 342.619 30.871 342.538 30.871ZM317.865 30.8119C317.607 30.8119 317.373 30.8531 317.17 30.935C316.965 31.0169 316.791 31.1278 316.65 31.2645C316.508 31.4025 316.4 31.5639 316.326 31.7443C316.253 31.9235 316.216 32.1126 316.216 32.306C316.216 32.5518 316.259 32.7624 316.344 32.9311C316.428 33.098 316.54 33.2397 316.678 33.3518C316.811 33.4602 316.963 33.5501 317.132 33.6191C317.292 33.685 317.457 33.7447 317.623 33.7965C317.786 33.8476 317.944 33.9006 318.098 33.9541C318.242 34.004 318.372 34.0662 318.484 34.1395C318.589 34.2085 318.672 34.2917 318.735 34.3933C318.795 34.4887 318.825 34.6156 318.825 34.7708C318.825 34.9211 318.799 35.0634 318.747 35.1946C318.696 35.3233 318.622 35.4354 318.526 35.529C318.43 35.6226 318.308 35.6984 318.165 35.7538C318.021 35.8098 317.854 35.8382 317.667 35.8382C317.529 35.8382 317.407 35.8246 317.302 35.7981C317.193 35.771 317.098 35.7372 317.016 35.699C316.934 35.6596 316.862 35.6177 316.801 35.5727C316.737 35.5253 316.681 35.4816 316.635 35.4409L316.508 35.3307C316.447 35.2771 316.388 35.2512 316.329 35.2512C316.27 35.2512 316.184 35.2703 316.112 35.3621L316 35.537C315.965 35.5924 315.971 35.6639 316.014 35.7131C316.212 35.9386 316.445 36.1184 316.709 36.2477C316.975 36.3789 317.294 36.4454 317.657 36.4454C317.939 36.4454 318.195 36.4005 318.416 36.3112C318.639 36.2219 318.831 36.0975 318.986 35.9416C319.142 35.7852 319.263 35.5986 319.344 35.3867C319.425 35.1779 319.466 34.9519 319.466 34.7154C319.466 34.4789 319.422 34.275 319.337 34.1106C319.253 33.9492 319.141 33.8113 319.003 33.7004C318.871 33.5938 318.719 33.5045 318.551 33.4337C318.392 33.3672 318.229 33.3062 318.061 33.2514C317.897 33.1972 317.739 33.143 317.585 33.0876C317.441 33.0371 317.311 32.973 317.199 32.8991C317.094 32.8295 317.009 32.7445 316.946 32.6466C316.887 32.5554 316.857 32.4347 316.857 32.2875C316.857 32.1717 316.879 32.0603 316.921 31.9556C316.963 31.8527 317.027 31.7603 317.109 31.6815C317.19 31.602 317.295 31.538 317.419 31.4912C317.546 31.4438 317.697 31.4197 317.867 31.4197C318.038 31.4197 318.182 31.4401 318.294 31.4807C318.412 31.5238 318.511 31.5706 318.586 31.6199C318.665 31.6704 318.728 31.716 318.772 31.7566C318.852 31.8287 318.922 31.8626 318.993 31.8626C319.089 31.8626 319.171 31.8108 319.218 31.7215L319.306 31.5509C319.336 31.4936 319.325 31.424 319.28 31.3791C319.091 31.1888 318.877 31.0447 318.645 30.9517C318.415 30.8587 318.152 30.8119 317.865 30.8119ZM301.998 36.2397H301.62V31.0182H301.998V36.2397ZM306.813 31.0182V36.2397H306.633C306.577 36.2397 306.532 36.2151 306.497 36.1658L303.121 31.6341C303.129 31.708 303.133 31.7782 303.133 31.8447V36.2397H302.806V31.0182H302.989C303.024 31.0182 303.05 31.0225 303.07 31.0311C303.09 31.0397 303.11 31.0588 303.133 31.0884L306.494 35.6121C306.486 35.5382 306.483 35.4674 306.483 35.3984V31.0182H306.813ZM312.03 31.0182L309.887 36.2397H309.553L307.41 31.0182H307.708C307.742 31.0182 307.77 31.0274 307.792 31.0459C307.814 31.0644 307.831 31.0884 307.843 31.1173L309.612 35.4501C309.658 35.5629 309.696 35.6836 309.726 35.8117C309.752 35.6786 309.788 35.5579 309.832 35.4501L311.597 31.1173C311.609 31.0902 311.627 31.0674 311.65 31.0477C311.674 31.028 311.703 31.0182 311.736 31.0182H312.03ZM312.03 31.0182H312.033ZM315.739 31.0182V31.3317H313.005V33.4423H315.28V33.7484H313.005V35.9262H315.739V36.2397H312.627V31.0182H315.739ZM323.733 31.0182V31.3391H321.909V36.2397H321.535V31.3391H319.7V31.0182H323.733ZM329.533 31.0182V36.2397H329.203V31.7893C329.203 31.7252 329.206 31.6575 329.214 31.586L327.17 35.2358C327.136 35.2999 327.087 35.3319 327.024 35.3319H326.965C326.904 35.3319 326.855 35.2999 326.818 35.2358L324.719 31.583C324.726 31.6538 324.73 31.7228 324.73 31.7893V36.2397H324.403V31.0182H324.66C324.694 31.0182 324.722 31.0219 324.743 31.0293C324.764 31.0367 324.784 31.0564 324.803 31.0884L326.899 34.7191C326.935 34.7881 326.967 34.862 326.994 34.9408C327.008 34.9014 327.024 34.8626 327.04 34.8244C327.055 34.7862 327.073 34.7499 327.093 34.7154L329.133 31.0884C329.152 31.0564 329.172 31.0367 329.192 31.0293C329.211 31.0219 329.238 31.0182 329.273 31.0182H329.533ZM333.314 31.0182V31.3317H330.58V33.4423H332.855V33.7484H330.58V35.9262H333.314V36.2397H330.202V31.0182H333.314ZM337.835 31.0182V36.2397H337.655C337.599 36.2397 337.554 36.2151 337.52 36.1658L334.143 31.6341C334.151 31.708 334.154 31.7782 334.154 31.8447V36.2397H333.828V31.0182H334.012C334.045 31.0182 334.072 31.0225 334.092 31.0311C334.111 31.0397 334.132 31.0588 334.154 31.0884L337.515 35.6121C337.509 35.5382 337.505 35.4674 337.505 35.3984V31.0182H337.835ZM342.538 31.0182V31.3391H340.715V36.2397H340.34V31.3391H338.506V31.0182H342.538ZM317.865 30.959C318.134 30.959 318.376 31.0022 318.591 31.0884C318.805 31.174 319 31.3058 319.177 31.4832L319.089 31.6525C319.067 31.6944 319.035 31.7154 318.993 31.7154C318.961 31.7154 318.92 31.6926 318.87 31.647C318.82 31.6014 318.751 31.5509 318.665 31.4961C318.58 31.4407 318.473 31.3896 318.343 31.3428C318.215 31.2959 318.055 31.2725 317.867 31.2725C317.678 31.2725 317.512 31.2996 317.368 31.3538C317.224 31.408 317.104 31.4819 317.007 31.5749C316.91 31.6686 316.837 31.777 316.786 31.9001C316.736 32.0233 316.711 32.152 316.711 32.2875C316.711 32.4643 316.748 32.6109 316.823 32.7267C316.897 32.8425 316.996 32.9404 317.118 33.0217C317.241 33.103 317.38 33.1713 317.536 33.2268C317.691 33.2816 317.851 33.337 318.015 33.3906C318.179 33.4448 318.339 33.5045 318.495 33.5698C318.65 33.6351 318.789 33.7164 318.912 33.815C319.034 33.9135 319.133 34.0348 319.207 34.1783C319.282 34.3224 319.32 34.5017 319.32 34.7154C319.32 34.9346 319.283 35.1404 319.208 35.3337C319.133 35.5265 319.025 35.6947 318.883 35.8375C318.741 35.9798 318.567 36.0925 318.362 36.1751C318.157 36.2576 317.922 36.2989 317.657 36.2989C317.315 36.2989 317.02 36.2379 316.773 36.1159C316.526 35.994 316.309 35.8277 316.124 35.6158L316.227 35.4538C316.255 35.4163 316.29 35.3984 316.329 35.3984C316.351 35.3984 316.379 35.4132 316.413 35.4428C316.448 35.4723 316.489 35.508 316.538 35.5512C316.587 35.5943 316.646 35.6411 316.715 35.6916C316.783 35.7421 316.863 35.7889 316.954 35.832C317.044 35.8751 317.148 35.9108 317.266 35.9404C317.384 35.97 317.517 35.9847 317.667 35.9847C317.872 35.9847 318.056 35.9533 318.218 35.8911C318.379 35.8283 318.516 35.7427 318.628 35.6343C318.739 35.5259 318.824 35.3978 318.883 35.2488C318.942 35.0997 318.971 34.9408 318.971 34.7708C318.971 34.5861 318.934 34.4345 318.859 34.3151C318.784 34.1956 318.686 34.0964 318.563 34.0163C318.441 33.9363 318.302 33.8691 318.146 33.815C317.991 33.7608 317.831 33.7078 317.667 33.6567C317.502 33.6049 317.343 33.547 317.187 33.483C317.031 33.4189 316.892 33.337 316.77 33.2379C316.647 33.1381 316.549 33.0137 316.474 32.8646C316.399 32.7162 316.362 32.5296 316.362 32.306C316.362 32.1311 316.395 31.9623 316.461 31.8004C316.527 31.6378 316.624 31.4943 316.752 31.3705C316.879 31.2461 317.036 31.1469 317.224 31.0718C317.411 30.9966 317.625 30.959 317.865 30.959Z" fill="white"/>
<path d="M325.689 27.438L324.665 24.8907C324.654 24.8623 324.642 24.8315 324.63 24.7977C324.618 24.8322 324.606 24.8636 324.595 24.8938L323.571 27.438H325.689ZM326.659 29.4883C326.608 29.4883 326.564 29.4742 326.528 29.4446C326.496 29.4169 326.471 29.383 326.455 29.343L325.858 27.8661H323.397L322.805 29.343C322.791 29.3812 322.765 29.4157 322.731 29.4428C322.694 29.4729 322.647 29.4883 322.597 29.4883H322.31C322.285 29.4883 322.263 29.4766 322.25 29.4557C322.236 29.4354 322.233 29.4095 322.242 29.3873L324.375 24.1467C324.386 24.119 324.412 24.1011 324.442 24.1011H324.818C324.848 24.1011 324.874 24.119 324.886 24.1467L327.018 29.3873C327.027 29.4095 327.024 29.4354 327.01 29.4557C326.997 29.4766 326.975 29.4883 326.95 29.4883H326.659ZM333.387 29.4883C333.346 29.4883 333.314 29.4557 333.314 29.415V27.252L331.399 24.2138C331.384 24.191 331.383 24.1627 331.396 24.1393C331.41 24.1153 331.433 24.1011 331.46 24.1011H331.788C331.838 24.1011 331.881 24.114 331.915 24.1399C331.944 24.1621 331.969 24.191 331.993 24.2267L333.485 26.6349C333.522 26.6952 333.553 26.7531 333.578 26.808C333.604 26.7525 333.635 26.6959 333.669 26.6361L335.158 24.228C335.177 24.1947 335.201 24.1658 335.231 24.1424C335.267 24.1146 335.31 24.1011 335.36 24.1011H335.692C335.718 24.1011 335.743 24.1153 335.756 24.1393C335.769 24.1627 335.768 24.191 335.754 24.2138L333.828 27.2914L333.839 29.415C333.839 29.4557 333.807 29.4883 333.766 29.4883H333.387ZM347.274 26.6897C347.496 26.6897 347.698 26.6626 347.873 26.6096C348.046 26.5567 348.194 26.4809 348.312 26.3836C348.429 26.2881 348.519 26.1711 348.581 26.0369C348.643 25.9014 348.673 25.7462 348.673 25.5749C348.673 25.2233 348.564 24.9707 348.338 24.8038C348.109 24.6338 347.767 24.5482 347.322 24.5482H346.441V26.6897H347.274ZM349.258 29.4883C349.208 29.4883 349.163 29.4785 349.124 29.4581C349.086 29.4378 349.052 29.4076 349.017 29.3651L347.349 27.2385C347.314 27.1929 347.278 27.1615 347.241 27.1442C347.215 27.1325 347.161 27.1177 347.049 27.1177H346.441V29.415C346.441 29.4557 346.408 29.4883 346.368 29.4883H345.992C345.952 29.4883 345.919 29.4557 345.919 29.415V24.1744C345.919 24.1344 345.952 24.1011 345.992 24.1011H347.322C347.937 24.1011 348.406 24.2237 348.714 24.4669C349.029 24.7133 349.188 25.0785 349.188 25.5521C349.188 25.7616 349.152 25.9556 349.079 26.1286C349.007 26.3023 348.902 26.4575 348.766 26.5887C348.632 26.7186 348.468 26.827 348.279 26.9102C348.136 26.973 347.978 27.0198 347.807 27.05C347.822 27.0666 349.643 29.3695 349.643 29.3695C349.661 29.3916 349.664 29.4218 349.652 29.4471C349.64 29.4723 349.614 29.4883 349.586 29.4883H349.258ZM337.872 24.5144C337.574 24.5144 337.299 24.5667 337.051 24.6702C336.806 24.773 336.592 24.9233 336.414 25.1167C336.236 25.3119 336.095 25.5528 335.998 25.8324C335.9 26.1145 335.85 26.4372 335.85 26.7926C335.85 27.1504 335.9 27.475 335.998 27.7552C336.095 28.0336 336.236 28.2738 336.414 28.469C336.592 28.663 336.806 28.8121 337.051 28.9137C337.297 29.0159 337.573 29.0677 337.872 29.0677C338.176 29.0677 338.455 29.0159 338.703 28.9137C338.948 28.8121 339.161 28.663 339.337 28.4696C339.512 28.2744 339.651 28.0348 339.747 27.7558C339.845 27.4756 339.894 27.151 339.894 26.7926C339.894 26.4366 339.845 26.1138 339.747 25.8324C339.651 25.5515 339.512 25.3113 339.337 25.1161C339.162 24.9227 338.948 24.773 338.702 24.6702C338.454 24.5667 338.174 24.5144 337.872 24.5144ZM337.872 29.5438C337.497 29.5438 337.149 29.4779 336.838 29.3479C336.526 29.2173 336.254 29.0295 336.029 28.7893C335.805 28.5503 335.628 28.2578 335.503 27.9196C335.379 27.5827 335.317 27.204 335.317 26.7926C335.317 26.3842 335.379 26.0067 335.503 25.6698C335.628 25.3317 335.805 25.0391 336.029 24.8001C336.254 24.5599 336.526 24.3715 336.838 24.2403C337.151 24.1091 337.499 24.042 337.872 24.042C338.252 24.042 338.602 24.1085 338.913 24.2384C339.226 24.369 339.498 24.5569 339.722 24.7983C339.947 25.0397 340.123 25.3329 340.247 25.6698C340.368 26.0054 340.43 26.383 340.43 26.7926C340.43 27.2046 340.368 27.584 340.247 27.9196C340.123 28.2565 339.947 28.5491 339.722 28.7893C339.498 29.0295 339.226 29.2173 338.913 29.3479C338.602 29.4779 338.252 29.5438 337.872 29.5438ZM328.493 29.5475C328.138 29.5475 327.829 29.4828 327.573 29.3565C327.318 29.2309 327.091 29.0566 326.899 28.8373C326.877 28.8127 326.875 28.777 326.892 28.7499L326.995 28.5867C327.054 28.5115 327.117 28.4974 327.16 28.4974C327.201 28.4974 327.245 28.5177 327.293 28.5596L327.389 28.6433C327.465 28.7105 327.524 28.7566 327.59 28.8065C327.655 28.854 327.732 28.8977 327.818 28.9396C327.905 28.9802 328.005 29.0159 328.118 29.043C328.23 29.0714 328.359 29.0861 328.502 29.0861C328.699 29.0861 328.876 29.056 329.029 28.9962C329.181 28.9371 329.312 28.8558 329.416 28.7548C329.521 28.6526 329.599 28.5343 329.655 28.3933C329.71 28.2535 329.738 28.1013 329.738 27.9406C329.738 27.7712 329.704 27.6302 329.637 27.523C329.567 27.4115 329.477 27.3204 329.362 27.2452C329.245 27.1689 329.109 27.1036 328.96 27.0506C328.804 26.997 328.644 26.9441 328.481 26.8929C328.314 26.8394 328.151 26.7815 327.993 26.7162C327.832 26.6509 327.685 26.5641 327.557 26.4594C327.426 26.3534 327.319 26.2192 327.24 26.0615C327.16 25.902 327.12 25.7024 327.12 25.4672C327.12 25.283 327.155 25.1032 327.225 24.9326C327.295 24.7595 327.399 24.6055 327.533 24.4749C327.667 24.3456 327.834 24.2397 328.031 24.1602C328.225 24.082 328.451 24.042 328.701 24.042C328.981 24.042 329.235 24.0875 329.456 24.1769C329.681 24.2674 329.887 24.406 330.069 24.5895C330.092 24.6117 330.097 24.6468 330.082 24.6757L329.994 24.8457C329.959 24.9116 329.902 24.948 329.834 24.948C329.782 24.948 329.727 24.9202 329.66 24.8605C329.612 24.8174 329.547 24.7693 329.465 24.7158C329.384 24.6634 329.28 24.6148 329.156 24.5698C329.036 24.5255 328.883 24.5033 328.703 24.5033C328.523 24.5033 328.363 24.5291 328.228 24.5796C328.094 24.6308 327.98 24.701 327.891 24.7866C327.8 24.874 327.732 24.9751 327.686 25.0878C327.64 25.2011 327.616 25.3224 327.616 25.4487C327.616 25.6107 327.65 25.7455 327.717 25.8496C327.785 25.9556 327.878 26.0479 327.993 26.1243C328.11 26.2025 328.246 26.269 328.395 26.322C328.551 26.3774 328.711 26.4316 328.875 26.4858C329.041 26.5413 329.204 26.6016 329.362 26.6675C329.524 26.7353 329.67 26.8221 329.797 26.9244C329.927 27.0291 330.034 27.1596 330.114 27.3124C330.193 27.4676 330.234 27.6597 330.234 27.8858C330.234 28.113 330.194 28.3304 330.117 28.5318C330.039 28.7345 329.924 28.9137 329.774 29.0634C329.627 29.2124 329.442 29.3319 329.227 29.4181C329.014 29.5037 328.767 29.5475 328.493 29.5475ZM342.957 29.5511C342.645 29.5511 342.358 29.4957 342.106 29.3861C341.852 29.2758 341.635 29.1219 341.459 28.9297C341.282 28.7369 341.145 28.5084 341.051 28.2491C340.958 27.9917 340.911 27.7115 340.911 27.4152V24.1744C340.911 24.1344 340.944 24.1011 340.984 24.1011H341.363C341.404 24.1011 341.436 24.1344 341.436 24.1744V27.4115C341.436 27.6462 341.471 27.8679 341.541 28.0705C341.61 28.2719 341.71 28.4487 341.84 28.5959C341.968 28.7425 342.129 28.8601 342.315 28.9439C342.503 29.0283 342.719 29.0707 342.957 29.0707C343.197 29.0707 343.412 29.0289 343.6 28.9457C343.788 28.8626 343.948 28.7456 344.077 28.5996C344.208 28.4518 344.309 28.275 344.378 28.0742C344.448 27.8716 344.484 27.6499 344.484 27.4152V24.1744C344.484 24.1344 344.515 24.1011 344.556 24.1011H344.932C344.972 24.1011 345.005 24.1344 345.005 24.1744V27.4152C345.005 27.7115 344.958 27.9917 344.864 28.2491C344.77 28.5072 344.634 28.7357 344.457 28.9297C344.28 29.1219 344.063 29.2758 343.81 29.3861C343.558 29.4957 343.271 29.5511 342.957 29.5511Z" fill="white"/>
<path d="M335.692 24.0276H335.361C335.293 24.0276 335.235 24.0467 335.186 24.0843C335.148 24.1144 335.117 24.152 335.092 24.197L333.608 26.5971C333.598 26.6144 333.588 26.6316 333.578 26.6488C333.569 26.6322 333.559 26.615 333.548 26.5977L332.056 24.1896C332.025 24.1428 331.994 24.1077 331.96 24.0818C331.913 24.0461 331.856 24.0276 331.788 24.0276H331.461C331.407 24.0276 331.358 24.0565 331.333 24.1034C331.307 24.1502 331.309 24.2074 331.337 24.253L333.24 27.2943V29.4148C333.24 29.4961 333.306 29.562 333.387 29.562H333.766C333.847 29.562 333.912 29.4961 333.912 29.4148V27.2943L335.816 24.253C335.844 24.2074 335.846 24.1502 335.82 24.1034C335.794 24.0565 335.745 24.0276 335.692 24.0276ZM344.931 24.0276H344.556C344.475 24.0276 344.41 24.0935 344.41 24.1748V27.415C344.41 27.6423 344.376 27.856 344.309 28.05C344.244 28.2422 344.147 28.4103 344.023 28.5507C343.9 28.6893 343.748 28.8002 343.571 28.8784C343.393 28.9572 343.187 28.9973 342.957 28.9973C342.729 28.9973 342.523 28.9572 342.346 28.8772C342.168 28.7971 342.016 28.6862 341.894 28.5476C341.772 28.4066 341.676 28.2385 341.61 28.0469C341.543 27.8517 341.509 27.638 341.509 27.4113V24.1748C341.509 24.0935 341.444 24.0276 341.363 24.0276H340.984C340.903 24.0276 340.838 24.0935 340.838 24.1748V27.415C340.838 27.7199 340.886 28.0094 340.983 28.2748C341.08 28.5421 341.222 28.7798 341.405 28.9794C341.589 29.1802 341.815 29.3397 342.077 29.4536C342.338 29.5676 342.635 29.6248 342.957 29.6248C343.281 29.6248 343.577 29.5676 343.839 29.4536C344.101 29.3397 344.327 29.1802 344.511 28.9794C344.694 28.7792 344.836 28.5421 344.933 28.2748C345.029 28.0094 345.078 27.7199 345.078 27.415V24.1748C345.078 24.0935 345.012 24.0276 344.931 24.0276ZM346.514 24.6213H347.322C347.752 24.6213 348.079 24.7026 348.296 24.8634C348.501 25.0155 348.601 25.2483 348.601 25.5747C348.601 25.7349 348.572 25.8802 348.514 26.0059C348.458 26.1303 348.374 26.238 348.266 26.3273C348.155 26.4179 348.016 26.4893 347.852 26.5392C347.684 26.5903 347.489 26.6162 347.274 26.6162H346.514V24.6213ZM347.322 24.0276H345.992C345.911 24.0276 345.846 24.0935 345.846 24.1748V29.4148C345.846 29.4961 345.911 29.562 345.992 29.562H346.368C346.448 29.562 346.514 29.4961 346.514 29.4148V27.1914H347.049C347.16 27.1914 347.201 27.2068 347.21 27.2118C347.237 27.2235 347.264 27.2475 347.291 27.2832L348.96 29.4099C348.999 29.4604 349.043 29.4986 349.09 29.5232C349.139 29.5491 349.196 29.562 349.258 29.562H349.587C349.642 29.562 349.694 29.5294 349.718 29.4789C349.742 29.4278 349.736 29.3674 349.701 29.3231L347.94 27.0984C348.071 27.0683 348.195 27.0276 348.308 26.9777C348.505 26.8909 348.676 26.7776 348.817 26.6415C348.96 26.5035 349.07 26.3403 349.147 26.1574C349.223 25.9744 349.261 25.7706 349.261 25.5526C349.261 25.0549 349.092 24.6706 348.759 24.4088C348.438 24.1557 347.954 24.0276 347.322 24.0276ZM323.679 27.3645L324.631 25.0007L325.58 27.3645H323.679ZM328.701 23.9685C328.443 23.9685 328.208 24.0097 328.004 24.0917C327.799 24.1736 327.624 24.285 327.482 24.4224C327.341 24.561 327.231 24.7229 327.158 24.904C327.084 25.0839 327.047 25.2736 327.047 25.4669C327.047 25.7139 327.09 25.9252 327.175 26.0945C327.259 26.2614 327.372 26.4037 327.51 26.5164C327.644 26.6248 327.797 26.7154 327.965 26.7843C328.126 26.8502 328.292 26.9106 328.458 26.963C328.622 27.0141 328.781 27.067 328.936 27.1206C329.08 27.1711 329.21 27.2333 329.323 27.3066C329.427 27.375 329.512 27.4606 329.575 27.5622C329.635 27.6571 329.665 27.7846 329.665 27.941C329.665 28.0919 329.639 28.2348 329.587 28.366C329.536 28.4953 329.462 28.608 329.365 28.7016C329.268 28.7959 329.146 28.8722 329.003 28.9277C328.858 28.9837 328.69 29.012 328.502 29.012C328.365 29.012 328.242 28.9991 328.136 28.972C328.027 28.9449 327.931 28.9116 327.849 28.8728C327.767 28.8334 327.694 28.7909 327.633 28.7466C327.568 28.6985 327.513 28.6542 327.466 28.6135L327.34 28.5033C327.278 28.4497 327.219 28.4239 327.16 28.4239C327.101 28.4239 327.015 28.4429 326.943 28.5347L326.83 28.7102C326.829 28.7133 326.827 28.7158 326.825 28.7189L324.953 24.1188C324.931 24.0639 324.877 24.0276 324.818 24.0276H324.442C324.383 24.0276 324.329 24.0639 324.307 24.1188L322.175 29.3594C322.156 29.4044 322.161 29.4561 322.189 29.4967C322.216 29.5374 322.261 29.562 322.31 29.562H322.597C322.665 29.562 322.727 29.5405 322.777 29.4998C322.822 29.4635 322.855 29.4185 322.875 29.3656L323.447 27.9398H325.81L326.388 29.3705C326.409 29.4228 326.441 29.4666 326.481 29.4998C326.529 29.5405 326.59 29.562 326.659 29.562H326.95C326.999 29.562 327.044 29.5374 327.072 29.4967C327.099 29.4561 327.104 29.4044 327.085 29.3594L326.932 28.98C327.11 29.1629 327.315 29.3114 327.542 29.4228C327.808 29.5546 328.128 29.6212 328.493 29.6212C328.776 29.6212 329.032 29.5756 329.255 29.4863C329.478 29.397 329.67 29.2719 329.827 29.1155C329.983 28.9578 330.103 28.7712 330.185 28.5587C330.266 28.3487 330.307 28.1221 330.307 27.8856C330.307 27.6478 330.264 27.4433 330.179 27.2783C330.094 27.1169 329.982 26.9783 329.843 26.8669C329.71 26.7603 329.558 26.6704 329.39 26.5996C329.23 26.5331 329.066 26.4715 328.897 26.416C328.734 26.3625 328.575 26.3076 328.42 26.2522C328.275 26.2011 328.145 26.137 328.033 26.0625C327.927 25.9929 327.842 25.9073 327.778 25.8094C327.719 25.7182 327.689 25.5963 327.689 25.4485C327.689 25.3327 327.711 25.2206 327.754 25.1159C327.796 25.0118 327.859 24.9194 327.941 24.84C328.024 24.7605 328.129 24.6965 328.254 24.649C328.381 24.6016 328.532 24.577 328.703 24.577C328.875 24.577 329.019 24.5979 329.132 24.6386C329.25 24.6817 329.349 24.7285 329.426 24.7778C329.504 24.8289 329.567 24.8751 329.612 24.9151C329.692 24.9878 329.762 25.0217 329.833 25.0217C329.929 25.0217 330.011 24.9699 330.059 24.8806L330.147 24.7094C330.177 24.6521 330.166 24.5825 330.121 24.5369C329.931 24.346 329.717 24.2019 329.484 24.1083C329.253 24.0153 328.989 23.9685 328.701 23.9685ZM337.872 28.9942C337.583 28.9942 337.317 28.9443 337.079 28.8457C336.843 28.7484 336.638 28.6049 336.468 28.4189C336.297 28.2323 336.162 28.0007 336.067 27.731C335.971 27.4581 335.923 27.1428 335.923 26.793C335.923 26.4456 335.971 26.1303 336.067 25.8568C336.162 25.5858 336.297 25.3536 336.468 25.167C336.638 24.981 336.844 24.8363 337.079 24.7377C337.317 24.6386 337.583 24.5881 337.872 24.5881C338.166 24.5881 338.436 24.6386 338.674 24.7383C338.91 24.8363 339.116 24.9804 339.283 25.1658C339.452 25.3524 339.585 25.5846 339.678 25.8562C339.773 26.1303 339.821 26.4456 339.821 26.793C339.821 27.1428 339.773 27.4581 339.678 27.7316C339.585 28.0014 339.452 28.2329 339.283 28.4195C339.116 28.6049 338.911 28.7484 338.675 28.8457C338.436 28.9443 338.166 28.9942 337.872 28.9942ZM337.872 23.9685C337.488 23.9685 337.131 24.0368 336.81 24.1723C336.488 24.3084 336.208 24.5025 335.976 24.7494C335.745 24.9964 335.563 25.297 335.435 25.6437C335.308 25.988 335.244 26.3748 335.244 26.793C335.244 27.213 335.308 27.601 335.435 27.9459C335.563 28.2927 335.745 28.5932 335.976 28.8396C336.208 29.0872 336.489 29.2812 336.811 29.4154C337.131 29.5497 337.488 29.6175 337.872 29.6175C338.261 29.6175 338.62 29.5497 338.941 29.4154C339.263 29.2812 339.544 29.0872 339.776 28.8396C340.007 28.5932 340.188 28.2921 340.315 27.9453C340.44 27.601 340.504 27.213 340.504 26.793C340.504 26.3748 340.44 25.9886 340.315 25.6443C340.188 25.2976 340.007 24.9958 339.776 24.7482C339.544 24.4994 339.264 24.3054 338.941 24.1705C338.62 24.0362 338.26 23.9685 337.872 23.9685ZM323.463 27.5111H325.797L324.733 24.8634C324.716 24.8215 324.699 24.7741 324.681 24.7205C324.664 24.6675 324.647 24.6115 324.63 24.5523C324.613 24.6115 324.596 24.6675 324.578 24.7205C324.561 24.7741 324.544 24.8227 324.527 24.8671L323.463 27.5111ZM324.818 24.1748L326.95 29.4148H326.659C326.625 29.4148 326.597 29.4056 326.574 29.3871C326.552 29.3686 326.535 29.3446 326.523 29.3151L325.908 27.7932H323.349L322.737 29.3151C322.727 29.3422 322.71 29.3656 322.685 29.3853C322.661 29.405 322.632 29.4148 322.597 29.4148H322.31L324.442 24.1748H324.818ZM335.692 24.1748L333.766 27.2518V29.4148H333.387V27.2518L331.461 24.1748H331.788C331.823 24.1748 331.85 24.1828 331.872 24.1988C331.892 24.2148 331.913 24.2376 331.932 24.2672L333.423 26.6741C333.458 26.7314 333.487 26.7862 333.512 26.8392C333.536 26.8921 333.558 26.9457 333.578 27.0005C333.598 26.9457 333.62 26.8921 333.645 26.8392C333.669 26.7862 333.698 26.7314 333.733 26.6741L335.22 24.2672C335.235 24.2401 335.253 24.2179 335.276 24.2007C335.298 24.1834 335.326 24.1748 335.361 24.1748H335.692ZM344.931 24.1748V27.415C344.931 27.7039 344.886 27.9736 344.795 28.2243C344.705 28.475 344.574 28.6936 344.403 28.8796C344.233 29.0662 344.025 29.2122 343.781 29.3187C343.536 29.4247 343.262 29.4776 342.957 29.4776C342.653 29.4776 342.379 29.4247 342.135 29.3187C341.891 29.2122 341.683 29.0662 341.512 28.8796C341.342 28.6936 341.211 28.475 341.12 28.2243C341.03 27.9736 340.984 27.7039 340.984 27.415V24.1748H341.363V27.4113C341.363 27.6558 341.399 27.8837 341.472 28.0944C341.544 28.3056 341.649 28.4891 341.785 28.6443C341.921 28.8002 342.088 28.9221 342.286 29.0114C342.483 29.1001 342.708 29.1444 342.957 29.1444C343.208 29.1444 343.432 29.1007 343.63 29.0133C343.827 28.9252 343.995 28.8039 344.132 28.648C344.27 28.4928 344.375 28.3093 344.448 28.098C344.52 27.8874 344.556 27.6595 344.556 27.415V24.1748H344.931ZM346.368 26.7634H347.274C347.504 26.7634 347.711 26.7357 347.894 26.6803C348.077 26.6242 348.232 26.5448 348.358 26.4413C348.485 26.3372 348.581 26.2128 348.647 26.0668C348.714 25.9215 348.747 25.757 348.747 25.5747C348.747 25.2015 348.625 24.925 348.382 24.7451C348.139 24.5647 347.785 24.4747 347.322 24.4747H346.368V26.7634ZM347.322 24.1748C347.923 24.1748 348.372 24.2912 348.669 24.5246C348.966 24.7581 349.115 25.1005 349.115 25.5526C349.115 25.7521 349.081 25.935 349.012 26.1001C348.943 26.2658 348.844 26.4111 348.716 26.5355C348.587 26.6605 348.432 26.7628 348.25 26.8429C348.068 26.9229 347.863 26.9759 347.635 27.0005C347.694 27.0375 347.746 27.0867 347.793 27.1483L349.587 29.4148H349.258C349.219 29.4148 349.186 29.4074 349.157 29.3927C349.129 29.3779 349.102 29.3532 349.075 29.3187L347.406 27.1927C347.365 27.1385 347.32 27.1003 347.272 27.0781C347.224 27.056 347.15 27.0449 347.049 27.0449H346.368V29.4148H345.992V24.1748H347.322ZM328.701 24.1157C328.972 24.1157 329.215 24.1588 329.43 24.245C329.645 24.3312 329.841 24.4637 330.018 24.641L329.929 24.8116C329.907 24.8535 329.876 24.8745 329.833 24.8745C329.801 24.8745 329.76 24.8517 329.71 24.8061C329.659 24.7605 329.591 24.7094 329.504 24.654C329.419 24.5985 329.311 24.5474 329.182 24.5006C329.052 24.4538 328.893 24.4304 328.703 24.4304C328.513 24.4304 328.346 24.4575 328.202 24.5117C328.058 24.5659 327.938 24.6398 327.84 24.734C327.743 24.8276 327.669 24.936 327.619 25.0598C327.568 25.183 327.543 25.313 327.543 25.4485C327.543 25.6265 327.58 25.773 327.655 25.8894C327.73 26.0052 327.829 26.1038 327.952 26.1857C328.075 26.267 328.215 26.3354 328.371 26.3908C328.527 26.4468 328.687 26.5016 328.852 26.5558C329.017 26.61 329.177 26.6704 329.334 26.7357C329.489 26.801 329.629 26.8829 329.752 26.9814C329.875 27.0806 329.974 27.2019 330.049 27.3467C330.124 27.4908 330.161 27.6706 330.161 27.8856C330.161 28.1048 330.124 28.3118 330.049 28.5058C329.974 28.6998 329.865 28.8679 329.723 29.0114C329.58 29.1543 329.406 29.267 329.2 29.3502C328.994 29.4327 328.758 29.474 328.493 29.474C328.149 29.474 327.853 29.413 327.606 29.291C327.357 29.1685 327.14 29.0016 326.954 28.7891L327.057 28.6259C327.086 28.5889 327.121 28.5704 327.16 28.5704C327.182 28.5704 327.21 28.5852 327.244 28.6148C327.279 28.6443 327.321 28.6807 327.37 28.7238C327.419 28.7675 327.478 28.8143 327.547 28.8648C327.616 28.9153 327.696 28.9621 327.787 29.0059C327.878 29.049 327.982 29.0853 328.1 29.1149C328.218 29.1444 328.352 29.1592 328.502 29.1592C328.709 29.1592 328.893 29.1278 329.055 29.065C329.218 29.0022 329.355 28.916 329.466 28.8076C329.579 28.6992 329.664 28.5698 329.723 28.4202C329.782 28.2711 329.811 28.111 329.811 27.941C329.811 27.7556 329.774 27.6035 329.699 27.4834C329.624 27.3639 329.525 27.2641 329.402 27.1834C329.279 27.1034 329.139 27.0362 328.983 26.9814C328.828 26.9272 328.667 26.8743 328.502 26.8225C328.338 26.7708 328.177 26.7123 328.021 26.6482C327.865 26.5842 327.725 26.5023 327.602 26.4019C327.48 26.3021 327.38 26.1777 327.306 26.028C327.23 25.879 327.193 25.6917 327.193 25.4669C327.193 25.292 327.226 25.1227 327.293 24.9594C327.359 24.7969 327.456 24.6527 327.584 24.5283C327.712 24.4039 327.87 24.3035 328.058 24.2284C328.246 24.1532 328.46 24.1157 328.701 24.1157ZM337.872 29.1408C338.187 29.1408 338.473 29.0878 338.73 28.9819C338.988 28.8753 339.208 28.7213 339.391 28.5187C339.574 28.3161 339.716 28.0697 339.816 27.7796C339.917 27.4895 339.968 27.1607 339.968 26.793C339.968 26.4277 339.917 26.0989 339.816 25.8082C339.716 25.5162 339.574 25.2692 339.391 25.0672C339.208 24.8646 338.988 24.7094 338.73 24.6022C338.473 24.4951 338.187 24.4415 337.872 24.4415C337.563 24.4415 337.28 24.4951 337.023 24.6022C336.767 24.7094 336.546 24.8646 336.36 25.0672C336.175 25.2692 336.031 25.5162 335.93 25.8082C335.827 26.0989 335.777 26.4277 335.777 26.793C335.777 27.1607 335.827 27.4895 335.93 27.7796C336.031 28.0697 336.175 28.3161 336.36 28.5187C336.546 28.7213 336.767 28.8753 337.023 28.9819C337.28 29.0878 337.563 29.1408 337.872 29.1408ZM337.872 24.1157C338.243 24.1157 338.58 24.1791 338.885 24.306C339.189 24.4335 339.451 24.6139 339.669 24.8486C339.888 25.0832 340.057 25.3653 340.178 25.6948C340.298 26.0243 340.358 26.3902 340.358 26.793C340.358 27.1976 340.298 27.5653 340.178 27.8948C340.057 28.2243 339.888 28.5058 339.669 28.7392C339.451 28.972 339.189 29.1525 338.885 29.2799C338.58 29.4068 338.243 29.4703 337.872 29.4703C337.506 29.4703 337.171 29.4068 336.867 29.2799C336.562 29.1525 336.301 28.972 336.082 28.7392C335.864 28.5058 335.694 28.2243 335.572 27.8948C335.451 27.5653 335.39 27.1976 335.39 26.793C335.39 26.3902 335.451 26.0243 335.572 25.6948C335.694 25.3653 335.864 25.0839 336.082 24.8504C336.301 24.617 336.562 24.4366 336.867 24.3078C337.171 24.1797 337.506 24.1157 337.872 24.1157Z" fill="white"/>
<path d="M296.938 20.5883C298.041 19.2543 299.713 18.4031 301.586 18.4031C304.437 18.4031 306.823 20.3771 307.441 23.0248L307.081 23.3875L307.28 23.5871L313.742 17.0722L313.542 16.8726L311.988 18.4401C309.917 14.8636 306.035 12.4542 301.586 12.4542C300.769 12.4542 299.97 12.5355 299.199 12.6901C299.199 12.6882 299.199 12.6858 299.199 12.6833C299.195 12.6845 299.191 12.6858 299.187 12.687L299.207 12.5983C299.22 12.4764 299.247 12.3581 299.286 12.2436L300.56 6.5336H311.559V0.568049H295.77L292.231 16.9145L292.23 16.9151L292.104 17.5002L291.868 18.5916H291.868L291.697 19.3861L296.938 20.5883Z" fill="white"/>
<path d="M300.326 30.0621L300.196 30.1933C298.094 29.6981 296.419 28.1072 295.816 26.0606L295.77 26.0957L289.717 26.1179C290.262 29.8244 292.521 32.9771 295.67 34.7552L293.234 37.2108L293.433 37.4116L300.525 30.2623L300.326 30.0621Z" fill="white"/>
<path d="M274.019 6.05918H280.961V33.889H287.33V1.01193e-05H277.731L274.019 6.05918Z" fill="white"/>
<path d="M313.157 16.3331L314.165 16.2986L314.2 17.3118L313.157 16.3331Z" fill="#E9E9E8"/>
<path d="M311.731 6.60746L314.564 6.51261L311.731 6.41776L313.043 5.00675L311.64 6.32661L311.546 3.47748L311.451 6.32661L310.048 5.00675L311.361 6.41776L308.528 6.51261L311.361 6.60746L310.048 8.01847L311.451 6.69799L311.546 9.54712L311.64 6.69799L313.043 8.01847L311.731 6.60746Z" fill="white"/>
<path d="M291.87 19.4669L294.703 19.372L291.87 19.2772L293.182 17.8662L291.779 19.186L291.685 16.3369L291.591 19.186L290.187 17.8662L291.5 19.2772L288.667 19.372L291.5 19.4669L290.187 20.8779L291.591 19.5574L291.685 22.4065L291.779 19.5574L293.182 20.8779L291.87 19.4669Z" fill="white"/>
<path d="M274.203 6.16898L277.036 6.07413L274.203 5.97928L275.515 4.56827L274.112 5.88813L274.018 3.03901L273.923 5.88813L272.52 4.56827L273.833 5.97928L271 6.07413L273.833 6.16898L272.52 7.57999L273.923 6.25952L274.018 9.10864L274.112 6.25952L275.515 7.57999L274.203 6.16898Z" fill="white"/>
</svg>
